<svg width="24" height="24" viewBox="0 0 24 24" fill="none" xmlns="http://www.w3.org/2000/svg">
<g clip-path="url(#clip0_161_7)">
<path d="M12 0C5.37201 0 0 5.3728 0 12C0 18.6272 5.37201 24 12 24C18.6272 24 24 18.6272 24 12C24 5.3728 18.6272 0 12 0ZM18.3992 16.2376C18.3992 17.3288 17.5672 18.3192 16.4496 18.4H16.448C13.68 18.3736 10.9192 17.3048 8.80721 15.192C6.6952 13.08 5.62641 10.32 5.6 7.552V7.5504C5.68081 6.4328 6.67121 5.6 7.76241 5.6H8.67681C8.9752 6.3192 9.30721 7.032 9.56721 7.7664C9.67681 8.0752 9.83121 8.4696 9.67841 8.7888C9.51281 9.1328 8.3704 9.6328 8.3704 9.6336C8.86081 10.9672 9.64081 12.2176 10.7112 13.288C11.7816 14.3584 13.032 15.1392 14.3656 15.6296C14.3672 15.6296 14.8672 14.4872 15.2112 14.3216C15.5296 14.168 15.9248 14.3232 16.2336 14.4328C16.9672 14.692 17.6808 15.024 18.4 15.3224C18.4 15.3224 18.4 16.2368 18.3992 16.2376Z" fill="#004F1A"/>
</g>
<defs>
<clipPath id="clip0_161_7">
<rect width="24" height="24" fill="white"/>
</clipPath>
</defs>
</svg>
