<svg width="32" height="32" viewBox="0 0 32 32" fill="none" xmlns="http://www.w3.org/2000/svg">
<path d="M28.9085 5.10344L14.3236 19.6884L9.7601 15.1248C9.13 14.4947 8.10854 14.4947 7.47844 15.1248C6.84833 15.7549 6.84833 16.7764 7.47844 17.4065L13.2983 23.2264C13.8646 23.7927 14.7827 23.7927 15.349 23.2264L31.1902 7.38512C31.8203 6.75501 31.8203 5.73355 31.1902 5.10344C30.5601 4.47333 29.5386 4.47333 28.9085 5.10344Z" fill="#95CE00"/>
<path d="M28.9389 17.7326C28.0816 24.1691 22.5175 29.1384 15.8315 29.0537C8.72779 28.9637 2.96541 23.1423 2.9453 16.038C2.92477 8.82233 8.78895 2.94552 15.9999 2.94552C17.0915 2.94552 18.1521 3.08064 19.1661 3.33443C19.834 3.50166 20.5291 3.19057 20.8371 2.57489C20.8416 2.56595 20.8461 2.55721 20.8503 2.54827C21.2695 1.7107 20.8036 0.702243 19.8947 0.47568C18.6363 0.161743 17.3306 0 15.9999 0C11.7261 0 7.70816 1.66417 4.68626 4.68629C1.66436 7.70821 0 11.7262 0 16C0 20.2738 1.66436 24.2916 4.68626 27.3137C7.70816 30.3356 11.7261 32 15.9999 32C20.2737 32 24.2916 30.3356 27.3135 27.3137C29.8335 24.7937 31.4089 21.5812 31.8628 18.1051C31.977 17.231 31.2959 16.4554 30.4143 16.4554H30.3875C29.6519 16.4554 29.0362 17.0034 28.9391 17.7324L28.9389 17.7326Z" fill="#95CE00"/>
</svg>
