<svg width="40" height="41" viewBox="0 0 40 41" fill="none" xmlns="http://www.w3.org/2000/svg">
<g clip-path="url(#clip0_161_652)">
<path d="M40 32.0584C40 36.9736 36.0156 40.958 31.1005 40.958H8.89947C3.98435 40.958 0 36.9736 0 32.0584V9.8576C0 4.9424 3.98435 0.958008 8.89947 0.958008H31.1005C36.0156 0.958008 40 4.9424 40 9.8576V32.0584Z" fill="#2DB400"/>
<g clip-path="url(#clip1_161_652)">
<path d="M27.1632 11.0689V10.1627C27.1632 9.49737 26.624 8.95801 25.9585 8.95801C25.2931 8.95801 24.7538 9.49737 24.7538 10.1627V11.0689H15.1878V10.1627C15.1878 9.49737 14.6484 8.95801 13.9831 8.95801C13.3177 8.95801 12.7784 9.49737 12.7784 10.1627V11.0689H7.99585V32.958H31.9457V11.0689H27.1632ZM29.8849 30.6744H10.3909V16.193H29.8849V30.6744Z" fill="white"/>
<path d="M18.6268 23.137L21.773 27.6567H24.3809V19.2119H21.6488V23.7317L18.5026 19.2119H15.8947V27.6567H18.6268V23.137Z" fill="white"/>
</g>
</g>
<defs>
<clipPath id="clip0_161_652">
<rect width="40" height="40" fill="white" transform="translate(0 0.958008)"/>
</clipPath>
<clipPath id="clip1_161_652">
<rect width="23.9499" height="24" fill="white" transform="translate(7.99585 8.95801)"/>
</clipPath>
</defs>
</svg>
