<svg width="40" height="43" viewBox="0 0 40 43" fill="none" xmlns="http://www.w3.org/2000/svg">
<path fill-rule="evenodd" clip-rule="evenodd" d="M21.536 9.93068C21.536 9.70415 21.3523 9.52051 21.1258 9.52051H18.6647C18.4382 9.52051 18.2546 9.70415 18.2546 9.93068V12.5968C18.2546 12.8234 18.0709 13.007 17.8444 13.007H15.1782C14.9517 13.007 14.7681 13.1906 14.7681 13.4172V15.8782C14.7681 16.1048 14.9517 16.2884 15.1782 16.2884H17.8444C18.0709 16.2884 18.2546 16.472 18.2546 16.6986V19.3647C18.2546 19.5912 18.4382 19.7749 18.6647 19.7749H21.1258C21.3523 19.7749 21.536 19.5912 21.536 19.3647V16.6986C21.536 16.472 21.7196 16.2884 21.9461 16.2884H24.6123C24.8388 16.2884 25.0224 16.1048 25.0224 15.8782V13.4172C25.0224 13.1906 24.8388 13.007 24.6123 13.007H21.9461C21.7196 13.007 21.536 12.8234 21.536 12.5968V9.93068Z" fill="#151F30"/>
<ellipse cx="20" cy="37.958" rx="13" ry="5" fill="#151F30"/>
<path d="M7.02067 15.6386C7.12163 17.5029 7.61744 19.2559 8.41799 20.8266L8.44373 20.8771L8.47501 20.9244L18.2997 35.771C19.0906 36.9661 20.8448 36.966 21.6356 35.7708L31.4606 20.9195L31.4908 20.8739L31.5158 20.8253C32.3233 19.2558 32.8199 17.499 32.9156 15.6356C32.9356 15.534 32.9395 15.4334 32.9291 15.3361C32.9325 15.2058 32.9353 15.0676 32.9353 14.9305C32.9353 7.76678 27.1325 1.95801 19.9677 1.95801C12.8081 1.95801 7 7.76651 7 14.9305C7 15.0618 7.0027 15.1954 7.00801 15.328C6.99626 15.4288 6.99976 15.5333 7.02067 15.6386ZM32.9257 15.463L32.9257 15.4624L32.9257 15.463ZM31.8423 16.435C31.8423 16.435 31.8424 16.4349 31.8424 16.4349C31.8515 16.4357 31.8607 16.4364 31.87 16.437C31.8607 16.4364 31.8515 16.4358 31.8423 16.435ZM19.9677 22.0145C16.0275 22.0145 12.8262 18.8133 12.8262 14.873C12.8262 10.9281 16.0271 7.73153 19.9677 7.73153C23.9131 7.73153 27.1094 10.9278 27.1094 14.873C27.1094 18.8137 23.9127 22.0145 19.9677 22.0145Z" fill="#151F30" stroke="white" stroke-width="2"/>
</svg>
