<svg width="40" height="41" viewBox="0 0 40 41" fill="none" xmlns="http://www.w3.org/2000/svg">
<g clip-path="url(#clip0_161_660)">
<path d="M40 32.0584C40 36.9736 36.0156 40.958 31.1005 40.958H8.89947C3.98435 40.958 0 36.9736 0 32.0584V9.8576C0 4.9424 3.98435 0.958008 8.89947 0.958008H31.1005C36.0156 0.958008 40 4.9424 40 9.8576V32.0584Z" fill="#FAE100"/>
<path d="M19.8744 8.48828C11.9285 8.48828 5.4873 13.5511 5.4873 19.7974C5.4873 23.8625 8.21616 27.4259 12.3127 29.4193C12.0118 30.5359 11.2228 33.4658 11.0652 34.0921C10.8698 34.87 11.351 34.86 11.6673 34.6516C11.9151 34.4874 15.6094 31.9889 17.2036 30.9108C18.0693 31.0387 18.9618 31.1061 19.8744 31.1061C27.8203 31.1061 34.2615 26.0435 34.2615 19.7974C34.2615 13.5511 27.8203 8.48828 19.8744 8.48828Z" fill="#371D1E"/>
<path d="M9.83754 17.7157H11.3183C11.3183 17.7157 11.3277 21.7601 11.3197 22.7023C11.3217 23.39 12.8603 23.3994 12.8582 22.7123L12.8649 17.7684C12.8649 17.7684 13.3609 17.7717 14.3383 17.7724C15.259 17.7724 15.2597 16.3331 14.3393 16.3321C13.3021 16.3321 9.83556 16.3037 9.83556 16.3037C8.96654 16.305 8.96925 17.7157 9.83754 17.7157Z" fill="#FAE100"/>
<mask id="mask0_161_660" style="mask-type:luminance" maskUnits="userSpaceOnUse" x="9" y="16" width="7" height="8">
<path d="M9.83754 17.7157H11.3183C11.3183 17.7157 11.3277 21.7601 11.3197 22.7023C11.3217 23.39 12.8603 23.3994 12.8582 22.7123L12.8649 17.7684C12.8649 17.7684 13.3609 17.7717 14.3383 17.7724C15.259 17.7724 15.2597 16.3331 14.3393 16.3321C13.3021 16.3321 9.83556 16.3037 9.83556 16.3037C8.96654 16.305 8.96925 17.7157 9.83754 17.7157Z" fill="white"/>
</mask>
<g mask="url(#mask0_161_660)">
<path d="M15.2599 16.3037H8.96674V23.3994H15.2599V16.3037Z" fill="#FAE100"/>
</g>
<path d="M16.9248 17.9776L17.7488 20.5447H16.0313L16.9248 17.9776ZM16.0014 16.775C15.6371 17.573 14.3209 21.341 13.884 22.3406C13.5677 23.0631 14.9303 23.6521 15.2463 22.9299L15.5428 21.8996H18.2525C18.2525 21.8996 18.1592 21.9416 18.5191 22.8861C18.8105 23.65 20.2175 23.1205 19.9257 22.3559C19.5096 21.2635 18.0705 17.3319 17.8079 16.775C17.687 16.5173 17.2529 16.333 16.8328 16.333C16.4849 16.333 16.1458 16.4592 16.0014 16.775Z" fill="#FAE100"/>
<mask id="mask1_161_660" style="mask-type:luminance" maskUnits="userSpaceOnUse" x="13" y="16" width="7" height="8">
<path d="M16.924 17.9776L17.748 20.5447H16.0305L16.924 17.9776ZM16.0006 16.775C15.6363 17.573 14.32 21.341 13.8832 22.3406C13.5669 23.0631 14.9294 23.6521 15.2454 22.9299L15.5419 21.8996H18.2516C18.2516 21.8996 18.1583 21.9416 18.5182 22.8861C18.8097 23.65 20.2166 23.1205 19.9248 22.3559C19.5088 21.2635 18.0697 17.3319 17.8071 16.775C17.6862 16.5173 17.252 16.333 16.832 16.333C16.4841 16.333 16.145 16.4592 16.0006 16.775Z" fill="white"/>
</mask>
<g mask="url(#mask1_161_660)">
<path d="M20.2167 16.333H13.567V23.6521H20.2167V16.333Z" fill="#FAE100"/>
</g>
<path d="M20.4446 17.0104C20.4473 18.2911 20.452 22.4184 20.452 22.4184C20.452 22.4184 20.3331 23.2387 21.0403 23.2387C21.7478 23.2387 23.3175 23.231 24.0136 23.231C24.7094 23.231 24.7056 21.759 24.0099 21.759C23.3135 21.759 22.0436 21.7516 22.0436 21.7516C22.0436 21.7516 22.0496 17.9338 22.0476 17.0067C22.0463 16.5583 21.6467 16.334 21.2468 16.334C20.8452 16.334 20.4439 16.5597 20.4446 17.0104Z" fill="#FAE100"/>
<mask id="mask2_161_660" style="mask-type:luminance" maskUnits="userSpaceOnUse" x="20" y="16" width="5" height="8">
<path d="M20.4446 17.0104C20.4473 18.2911 20.452 22.4184 20.452 22.4184C20.452 22.4184 20.3331 23.2387 21.0403 23.2387C21.7478 23.2387 23.3175 23.231 24.0136 23.231C24.7094 23.231 24.7056 21.759 24.0099 21.759C23.3135 21.759 22.0436 21.7516 22.0436 21.7516C22.0436 21.7516 22.0496 17.9338 22.0476 17.0067C22.0463 16.5583 21.6467 16.334 21.2468 16.334C20.8452 16.334 20.4439 16.5597 20.4446 17.0104Z" fill="white"/>
</mask>
<g mask="url(#mask2_161_660)">
<path d="M24.7089 16.334H20.3326V23.2387H24.7089V16.334Z" fill="#FAE100"/>
</g>
<path d="M24.8947 16.8067C24.9102 17.3682 24.8766 22.4464 24.877 22.8227C24.8773 23.4166 26.3977 23.4153 26.3973 22.8217C26.397 22.1322 26.3973 20.8238 26.3973 20.8238L26.8439 20.4679L28.796 23.1164C29.1908 23.6339 30.4326 22.6988 30.0384 22.1813L27.9651 19.4663C27.9651 19.4663 29.3722 17.9532 29.9269 17.405C30.2506 17.0855 29.2486 16.0815 28.9249 16.402C28.6113 16.7112 26.4071 18.9054 26.4071 18.9054C26.4071 18.9054 26.4269 17.5275 26.4064 16.766C26.3987 16.4768 26.0418 16.3369 25.6768 16.3369C25.2863 16.3369 24.8867 16.4972 24.8947 16.8067Z" fill="#FAE100"/>
<mask id="mask3_161_660" style="mask-type:luminance" maskUnits="userSpaceOnUse" x="24" y="16" width="7" height="8">
<path d="M24.8938 16.8067C24.9093 17.3682 24.8757 22.4464 24.876 22.8227C24.8763 23.4166 26.3968 23.4153 26.3964 22.8217C26.3961 22.1322 26.3964 20.8238 26.3964 20.8238L26.843 20.4679L28.7951 23.1164C29.1899 23.6339 30.4316 22.6988 30.0375 22.1813L27.9642 19.4663C27.9642 19.4663 29.3713 17.9532 29.926 17.405C30.2497 17.0855 29.2477 16.0815 28.924 16.402C28.6104 16.7112 26.4062 18.9054 26.4062 18.9054C26.4062 18.9054 26.426 17.5275 26.4055 16.766C26.3978 16.4768 26.0409 16.3369 25.6758 16.3369C25.2853 16.3369 24.8858 16.4972 24.8938 16.8067Z" fill="white"/>
</mask>
<g mask="url(#mask3_161_660)">
<path d="M30.4324 16.082H24.8765V23.6344H30.4324V16.082Z" fill="#FAE100"/>
</g>
</g>
<defs>
<clipPath id="clip0_161_660">
<rect width="40" height="40" fill="white" transform="translate(0 0.958008)"/>
</clipPath>
</defs>
</svg>
