<svg width="40" height="40" viewBox="0 0 40 40" fill="none" xmlns="http://www.w3.org/2000/svg">
<g clip-path="url(#clip0_161_631)">
<path d="M16.6163 11.7917C15.9974 10.9211 14.7874 10.7142 13.9143 11.3348C13.0418 11.9543 12.8368 13.1644 13.4569 14.0375L17.15 19.2371C17.1097 19.4289 17.0863 19.6282 17.0863 19.8327C17.0863 21.4161 18.3682 22.6992 19.9511 22.6992C20.7844 22.6992 21.5282 22.3384 22.0519 21.7707H26.2067C27.2773 21.7707 28.1447 20.9026 28.1447 19.8327C28.1447 18.7627 27.2773 17.8946 26.2067 17.8946H22.0513C21.6064 17.4126 21.0015 17.0909 20.3183 17.0026L16.6163 11.7917Z" fill="#151F30"/>
<path d="M33.6093 13.6584C34.119 14.7637 34.4956 15.9408 34.722 17.1723C34.7946 17.5685 35.1567 17.841 35.558 17.8044L39.1684 17.4725C39.3835 17.4536 39.5809 17.3451 39.7128 17.1735C39.8452 17.0019 39.8995 16.7836 39.8642 16.5704C39.5166 14.4773 38.8454 12.4963 37.9022 10.6756C37.7956 10.4686 37.6019 10.3211 37.3748 10.2719C37.147 10.224 36.9099 10.2782 36.7275 10.4233L33.8318 12.7235C33.5518 12.9467 33.4591 13.3328 33.6093 13.6584Z" fill="#151F30"/>
<path d="M30.9135 30.9615C30.6188 30.7596 30.2252 30.7849 29.9577 31.022C27.628 33.09 24.6497 34.4413 21.3685 34.7253V32.9841C21.3685 32.2699 20.79 31.692 20.0765 31.692C19.363 31.692 18.7845 32.2699 18.7845 32.9841V34.724C11.5946 34.1032 5.8543 28.3636 5.23365 21.173H6.97413C7.68767 21.173 8.26608 20.5951 8.26608 19.881C8.26608 19.1669 7.68767 18.589 6.97413 18.589H5.22858C5.81141 11.835 10.9177 6.3655 17.495 5.2122C17.8666 5.14656 18.1385 4.82488 18.1385 4.44763V0.777293C18.1385 0.552608 18.0408 0.338116 17.8703 0.190613C17.7007 0.0429174 17.4749 -0.023879 17.2515 0.00766016C7.50152 1.38038 0 9.75314 0 19.881C0 30.969 8.98847 39.9577 20.0765 39.9577C25.5235 39.9577 30.4504 37.7761 34.0659 34.2533C34.2324 34.0905 34.3176 33.8622 34.2981 33.63C34.2778 33.3978 34.1555 33.186 33.9637 33.0547L30.9135 30.9615Z" fill="#151F30"/>
<path d="M22.6581 5.21073C23.166 5.29913 23.6643 5.41266 24.1525 5.55145C24.5261 5.65741 24.9178 5.47202 25.0749 5.11733L26.5479 1.79534C26.6376 1.59341 26.6363 1.36251 26.5455 1.16058C26.4553 0.96006 26.2824 0.804864 26.0717 0.73794C25.0478 0.413637 23.9904 0.165042 22.9028 0.00862821C22.6795 -0.022911 22.4531 0.0440136 22.2827 0.191581C22.1123 0.339213 22.0145 0.553705 22.0145 0.779543V4.44482C22.0145 4.82342 22.2859 5.14637 22.6581 5.21073Z" fill="#151F30"/>
<path d="M30.6561 9.40889C30.9349 9.69287 31.3816 9.71941 31.6933 9.4721L34.5384 7.21109C34.7094 7.07608 34.8154 6.87409 34.8306 6.65588C34.8457 6.43754 34.7681 6.2244 34.6179 6.06535C33.5828 4.9777 32.4269 4.00755 31.171 3.17356C30.9804 3.04734 30.7432 3.01073 30.523 3.07509C30.3028 3.13945 30.1224 3.29721 30.0297 3.50664L28.5428 6.85903C28.3945 7.19467 28.4992 7.58834 28.7957 7.80283C29.4599 8.28605 30.0808 8.82478 30.6561 9.40889Z" fill="#151F30"/>
<path d="M39.7792 21.5996C39.6151 21.4318 39.3849 21.346 39.1514 21.3675L35.4622 21.7069C35.1101 21.7384 34.8257 22.0034 34.7669 22.3516C34.4906 23.9981 33.9431 25.5501 33.1727 26.9658C32.9822 27.3152 33.0863 27.7531 33.415 27.9777L36.4091 30.033C36.5888 30.1566 36.8116 30.1995 37.0241 30.1503C37.2361 30.1012 37.4178 29.9649 37.5257 29.7756C38.8183 27.5008 39.6775 24.9507 39.9949 22.233C40.0219 21.9995 39.9425 21.7675 39.7792 21.5996Z" fill="#151F30"/>
</g>
<defs>
<clipPath id="clip0_161_631">
<rect width="40" height="39.9577" fill="white"/>
</clipPath>
</defs>
</svg>
