<svg width="23" height="25" viewBox="0 0 23 25" fill="none" xmlns="http://www.w3.org/2000/svg">
<path d="M21.5522 12.7112C21.5522 18.6229 16.8785 23.3843 11.1511 23.3843C5.42367 23.3843 0.75 18.6229 0.75 12.7112C0.75 6.79946 5.42367 2.03809 11.1511 2.03809C16.8785 2.03809 21.5522 6.79946 21.5522 12.7112Z" fill="white" stroke="#595959" stroke-width="1.5"/>
<path d="M11.4579 16.304C11.7993 16.304 12.0873 16.4213 12.3219 16.656C12.5566 16.8907 12.6739 17.1787 12.6739 17.52C12.6739 17.8613 12.5566 18.1493 12.3219 18.384C12.0873 18.6187 11.7993 18.736 11.4579 18.736C11.1166 18.736 10.8286 18.6187 10.5939 18.384C10.3593 18.1493 10.2419 17.8613 10.2419 17.52C10.2419 17.1787 10.3593 16.8907 10.5939 16.656C10.8286 16.4213 11.1166 16.304 11.4579 16.304ZM11.4579 6.064C11.7993 6.064 12.0713 6.13867 12.2739 6.288C12.4873 6.43733 12.5886 6.688 12.5779 7.04L12.3219 14.352C12.3113 14.6827 12.2153 14.912 12.0339 15.04C11.8633 15.168 11.6713 15.232 11.4579 15.232C11.2446 15.232 11.0473 15.168 10.8659 15.04C10.6953 14.912 10.6046 14.6827 10.5939 14.352L10.3379 7.04C10.3273 6.688 10.4233 6.43733 10.6259 6.288C10.8393 6.13867 11.1166 6.064 11.4579 6.064Z" fill="#595959"/>
</svg>
