<svg width="57" height="58" viewBox="0 0 57 58" fill="none" xmlns="http://www.w3.org/2000/svg">
<rect x="1.5" y="1" width="54" height="56" rx="27" fill="white"/>
<rect x="1.5" y="1" width="54" height="56" rx="27" stroke="#999999" stroke-width="2"/>
<path d="M24.5175 39.44C24.5175 38.4373 24.8162 37.648 25.4135 37.072C26.0108 36.496 26.8535 36.208 27.9415 36.208C29.0295 36.208 29.8722 36.5067 30.4695 37.104C31.0668 37.68 31.3655 38.4587 31.3655 39.44C31.3655 40.4213 31.0668 41.2107 30.4695 41.808C29.8722 42.384 29.0295 42.672 27.9415 42.672C26.8535 42.672 26.0108 42.384 25.4135 41.808C24.8162 41.232 24.5175 40.4427 24.5175 39.44ZM24.7095 34.704V32.752C24.7095 31.5147 24.8482 30.5013 25.1255 29.712C25.4028 28.9227 25.9895 28.2613 26.8855 27.728C27.5895 27.3013 28.2188 26.9173 28.7735 26.576C29.3282 26.2347 29.7762 25.9147 30.1175 25.616C30.6295 25.1467 30.9708 24.72 31.1415 24.336C31.3122 23.9307 31.3975 23.4507 31.3975 22.896C31.3975 22.1493 31.1415 21.5627 30.6295 21.136C30.1175 20.7093 29.4988 20.496 28.7735 20.496C28.0268 20.496 27.3548 20.6773 26.7575 21.04C26.1815 21.3813 25.7975 21.8827 25.6055 22.544C25.3708 23.312 24.9442 23.8987 24.3255 24.304C23.7068 24.7093 22.9495 24.88 22.0535 24.816C21.6908 24.7947 21.3388 24.72 20.9975 24.592C20.6562 24.4427 20.3575 24.24 20.1015 23.984C19.8668 23.728 19.6748 23.4187 19.5255 23.056C19.3762 22.672 19.3122 22.2347 19.3335 21.744C19.3548 20.7627 19.6215 19.856 20.1335 19.024C20.6455 18.1707 21.3282 17.4347 22.1815 16.816C23.0348 16.1973 24.0268 15.7173 25.1575 15.376C26.2882 15.0133 27.4935 14.832 28.7735 14.832C30.0962 14.832 31.3122 15.0027 32.4215 15.344C33.5522 15.664 34.5228 16.1547 35.3335 16.816C36.1442 17.4773 36.7735 18.32 37.2215 19.344C37.6908 20.3467 37.9255 21.5307 37.9255 22.896C37.9255 23.984 37.7975 24.9227 37.5415 25.712C37.2855 26.5013 36.8695 27.2373 36.2935 27.92C35.8028 28.4747 35.1948 29.0293 34.4695 29.584C33.7655 30.1387 33.0188 30.672 32.2295 31.184C31.7815 31.4827 31.4935 31.8027 31.3655 32.144C31.2375 32.464 31.1735 32.8373 31.1735 33.264V34.704H24.7095Z" fill="#999999"/>
</svg>
