<svg width="24" height="24" viewBox="0 0 24 24" fill="none" xmlns="http://www.w3.org/2000/svg">
    <path fill-rule="evenodd" clip-rule="evenodd" d="M4.536 3.263a.9.9 0 1 0-1.273 1.273l2.082 2.082C2.086 8.75 1.2 11.998 1.2 11.998s1.964 7.2 10.798 7.2c1.996 0 3.64-.368 4.991-.936l2.472 2.471a.9.9 0 0 0 1.272-1.272L4.536 3.263zm11.055 13.6-1.111-1.11a4.5 4.5 0 0 1-6.235-6.235L6.65 7.923a8.409 8.409 0 0 0-2.018 1.669 8.923 8.923 0 0 0-1.52 2.405 8.92 8.92 0 0 0 1.52 2.406c1.288 1.453 3.512 2.993 7.365 2.993 1.403 0 2.59-.204 3.593-.533zm-6.029-6.029a2.7 2.7 0 0 0 3.6 3.6l-3.6-3.6z" fill="#7F8A94"/>
    <path d="M22.797 11.993C22.725 11.74 20.674 4.8 11.998 4.8c-1.201 0-2.276.133-3.235.363l1.543 1.543a12.96 12.96 0 0 1 1.692-.107c3.854 0 6.08 1.541 7.367 2.995A8.924 8.924 0 0 1 20.886 12a8.923 8.923 0 0 1-2.198 3.09l1.274 1.273c2.126-1.95 2.794-4.214 2.835-4.356v-.014z" fill="#7F8A94"/>
    <path d="M16.423 12.824a4.5 4.5 0 0 0-5.248-5.248l1.988 1.987a2.712 2.712 0 0 1 1.272 1.273l1.988 1.988z" fill="#7F8A94"/>
</svg>
