<svg width="32" height="33" viewBox="0 0 32 33" fill="none" xmlns="http://www.w3.org/2000/svg">
<circle cx="16" cy="16.5" r="16" fill="#1662F8"/>
<path d="M18.874 9.32227C19.4234 9.32224 19.952 9.53214 20.3517 9.90903C20.7514 10.2859 20.992 10.8013 21.0243 11.3498L21.0278 11.4761V21.5274C21.0279 22.0768 20.818 22.6054 20.4411 23.0051C20.0642 23.4048 19.5488 23.6454 19.0004 23.6777L18.874 23.6812H13.1304C12.581 23.6813 12.0524 23.4714 11.6527 23.0945C11.253 22.7176 11.0124 22.2022 10.9802 21.6538L10.9766 21.5274V11.4761C10.9765 10.9267 11.1864 10.3981 11.5633 9.99839C11.9402 9.59867 12.4556 9.35809 13.004 9.32586L13.1304 9.32227H18.874ZM16.0022 19.3735C15.8264 19.3736 15.6566 19.4381 15.5252 19.555C15.3938 19.6718 15.3099 19.8329 15.2893 20.0075L15.2843 20.0915L15.2893 20.1827C15.31 20.3572 15.3941 20.518 15.5255 20.6347C15.6569 20.7514 15.8265 20.8158 16.0022 20.8158C16.1779 20.8158 16.3476 20.7514 16.4789 20.6347C16.6103 20.518 16.6944 20.3572 16.7151 20.1827L16.7202 20.0987L16.7151 20.0075C16.6946 19.8329 16.6106 19.6718 16.4792 19.555C16.3478 19.4381 16.1781 19.3736 16.0022 19.3735ZM16.7202 10.7582H15.2843L15.2003 10.7632C15.0258 10.7839 14.8649 10.868 14.7482 10.9994C14.6316 11.1308 14.5671 11.3004 14.5671 11.4761C14.5671 11.6518 14.6316 11.8215 14.7482 11.9529C14.8649 12.0842 15.0258 12.1683 15.2003 12.189L15.2843 12.1941H16.7202L16.8042 12.189C16.9786 12.1683 17.1395 12.0842 17.2562 11.9529C17.3729 11.8215 17.4373 11.6518 17.4373 11.4761C17.4373 11.3004 17.3729 11.1308 17.2562 10.9994C17.1395 10.868 16.9786 10.7839 16.8042 10.7632L16.7202 10.7582Z" fill="white"/>
</svg>
