<svg width="48" height="48" viewBox="0 0 48 48" fill="none" xmlns="http://www.w3.org/2000/svg">
<g clip-path="url(#clip0_98_232)">
<path d="M24 48C37.2548 48 48 37.2548 48 24C48 10.7452 37.2548 0 24 0C10.7452 0 0 10.7452 0 24C0 37.2548 10.7452 48 24 48Z" fill="#FFEBDE"/>
<path fill-rule="evenodd" clip-rule="evenodd" d="M19 13.5C18.4696 13.5 17.9609 13.7107 17.5858 14.0858C17.2107 14.4609 17 14.9696 17 15.5V32.5C17 33.0304 17.2107 33.5391 17.5858 33.9142C17.9609 34.2893 18.4696 34.5 19 34.5H29C29.5304 34.5 30.0391 34.2893 30.4142 33.9142C30.7893 33.5391 31 33.0304 31 32.5V15.5C31 14.9696 30.7893 14.4609 30.4142 14.0858C30.0391 13.7107 29.5304 13.5 29 13.5H19ZM22 15C21.7348 15 21.4804 15.1054 21.2929 15.2929C21.1054 15.4804 21 15.7348 21 16C21 16.2652 21.1054 16.5196 21.2929 16.7071C21.4804 16.8946 21.7348 17 22 17H26C26.2652 17 26.5196 16.8946 26.7071 16.7071C26.8946 16.5196 27 16.2652 27 16C27 15.7348 26.8946 15.4804 26.7071 15.2929C26.5196 15.1054 26.2652 15 26 15H22Z" fill="#FCA05E"/>
</g>
<defs>
<clipPath id="clip0_98_232">
<rect width="48" height="48" fill="white"/>
</clipPath>
</defs>
</svg>
