<svg width="32" height="32" viewBox="0 0 32 32" fill="none" xmlns="http://www.w3.org/2000/svg">
<g clip-path="url(#clip0_384_8)">
<path d="M30.9502 15.9805C30.9502 7.70047 24.2402 0.980469 15.9502 0.980469C7.6602 0.980469 0.950195 7.70047 0.950195 15.9805C0.950195 24.2605 7.6702 30.9805 15.9502 30.9805C24.2302 30.9805 30.9502 24.2605 30.9502 15.9805Z" fill="white"/>
<path d="M31 16C31 7.72 24.28 1 16 1C7.72 1 1 7.72 1 16C1 24.28 7.72 31 16 31C24.28 31 31 24.28 31 16Z" stroke="#E7EBEE" stroke-width="2"/>
<path d="M12.6898 21.5302C12.6898 21.5302 12.6098 21.5002 12.5698 21.4902C12.6098 21.5002 12.6498 21.5202 12.6898 21.5302Z" fill="#7F8A94"/>
<path d="M21.89 11.7598C21.78 11.6698 21.66 11.5898 21.55 11.5098C21.11 11.1998 20.63 10.9498 20.17 10.7698C19.15 10.3598 18.26 10.2198 18.26 10.2198C17.57 10.0998 16.83 10.0098 16 10.0098C8.77 10.0098 7.06 15.7898 7 15.9998C7.03 16.1298 7.56 17.8798 9.19 19.4698C9.19 19.4698 9.26 19.5398 9.36 19.6398C9.36 19.6398 9.36 19.6398 9.37 19.6498C9.57 19.8298 9.94 20.1398 10.48 20.4798C11.02 20.8298 11.73 21.1998 12.58 21.4998C12.62 21.5098 12.66 21.5298 12.7 21.5398C13.65 21.8298 14.74 22.0098 16.01 22.0098C23.37 22.0098 25.01 16.0098 25.01 16.0098C25.01 16.0098 24.33 13.5398 21.9 11.7698L21.89 11.7598ZM22.14 17.9998C21.07 19.2098 19.21 20.4898 16 20.4898C14.84 20.4898 13.86 20.3198 13.03 20.0498H13.01C12.76 19.9698 12.21 19.7598 11.57 19.3698C11.03 19.0498 10.42 18.6098 9.89 18.0098C9.36 17.4098 8.92 16.7298 8.6 15.9898C8.91 15.2598 9.34 14.5798 9.87 13.9798C10.94 12.7698 12.8 11.4798 16.01 11.4798C16.48 11.4798 16.94 11.5098 17.41 11.5698C17.99 11.6398 18.52 11.7798 18.99 11.9398C19.6 12.1498 20.11 12.3998 20.46 12.5898C20.63 12.6798 20.75 12.7598 20.84 12.8198C20.88 12.8398 20.92 12.8698 20.95 12.8898C20.97 12.8998 20.97 12.9098 20.98 12.9098C21.45 13.2398 21.83 13.6098 22.15 13.9598C22.68 14.5598 23.1 15.2298 23.42 15.9698C23.11 16.6998 22.68 17.3798 22.15 17.9798L22.14 17.9998Z" fill="#7F8A94"/>
<path d="M19.6698 15.2998C19.6698 15.2998 19.6698 15.2498 19.6598 15.2298C19.4498 14.2498 18.8698 13.4198 18.0598 12.8798C17.6498 12.6098 17.1798 12.4198 16.6698 12.3298L16.6898 12.3098C16.5498 12.2798 16.3998 12.2898 16.2498 12.2798C16.1698 12.2798 16.0898 12.2598 15.9998 12.2598C15.9798 12.2598 15.9598 12.2598 15.9398 12.2598C15.7698 12.2598 15.5998 12.2898 15.4398 12.3098C15.3298 12.3298 15.2298 12.3398 15.1298 12.3698C15.0498 12.3898 14.9698 12.3898 14.8898 12.4098C14.8098 12.4298 14.7398 12.4798 14.6698 12.5098C14.5698 12.5498 14.4798 12.5898 14.3798 12.6398C14.2298 12.7098 14.0798 12.7898 13.9398 12.8798C13.8798 12.9198 13.8298 12.9698 13.7798 13.0098C13.6298 13.1198 13.4798 13.2198 13.3498 13.3398C13.2198 13.4598 13.1098 13.6298 12.9998 13.7898C12.9698 13.8398 12.9298 13.8798 12.8898 13.9298C12.7898 14.0798 12.7098 14.2398 12.6298 14.3998C12.5898 14.4798 12.5498 14.5598 12.5198 14.6398C12.4898 14.7198 12.4398 14.7998 12.4098 14.8898C12.3798 14.9798 12.3798 15.0698 12.3598 15.1498C12.3398 15.2298 12.3298 15.3098 12.3198 15.3898C12.2898 15.5798 12.2598 15.7698 12.2598 15.9698C12.2598 15.9698 12.2598 15.9898 12.2598 15.9998C12.2598 16.0398 12.2698 16.0798 12.2698 16.1198C12.2698 16.3098 12.2698 16.4998 12.3098 16.6898L12.3298 16.6698C12.4198 17.1798 12.6098 17.6498 12.8798 18.0598C13.4198 18.8698 14.2598 19.4598 15.2398 19.6698C15.2398 19.6698 15.2398 19.6698 15.2498 19.6698C15.4798 19.7198 15.7198 19.7398 15.9598 19.7398C15.9698 19.7398 15.9798 19.7398 15.9998 19.7398C16.0198 19.7398 16.0298 19.7398 16.0498 19.7398C16.1598 19.7398 16.2698 19.7398 16.3698 19.7398C16.4798 19.7298 16.5798 19.6998 16.6898 19.6798C16.7298 19.6798 16.7598 19.6698 16.7998 19.6598C17.0098 19.6098 17.2098 19.5498 17.3998 19.4698C17.4298 19.4598 17.4498 19.4498 17.4798 19.4398C17.9098 19.2498 18.3098 18.9898 18.6498 18.6598C18.9898 18.3198 19.2498 17.9298 19.4298 17.4998C19.4498 17.4598 19.4598 17.4298 19.4698 17.3898C19.5398 17.2098 19.5998 17.0198 19.6398 16.8298C19.6498 16.7798 19.6598 16.7298 19.6698 16.6898C19.6898 16.5898 19.7198 16.4998 19.7298 16.3998C19.7398 16.2998 19.7298 16.1998 19.7298 16.0998C19.7298 16.0698 19.7298 16.0498 19.7298 16.0298C19.7298 16.0098 19.7298 15.9898 19.7298 15.9798C19.7298 15.7598 19.6998 15.5398 19.6598 15.3298L19.6698 15.2998ZM17.1498 17.9198C17.0798 17.9598 17.0098 17.9998 16.9398 18.0298C16.7798 18.0998 16.6198 18.1598 16.4498 18.1898C16.3698 18.2098 16.2898 18.2098 16.2098 18.2098C16.0998 18.2198 15.9798 18.2198 15.8698 18.2098C15.7798 18.2098 15.6898 18.1998 15.5998 18.1798C15.4398 18.1498 15.2798 18.0998 15.1298 18.0398C15.0998 18.0298 15.0798 18.0098 15.0498 17.9998C14.5898 17.7798 14.2098 17.3998 13.9898 16.9398C13.8498 16.6498 13.7698 16.3298 13.7698 15.9898C13.7698 14.7598 14.7698 13.7498 16.0098 13.7498C16.3498 13.7498 16.6698 13.8298 16.9598 13.9698C17.4298 14.1898 17.7998 14.5598 18.0198 15.0298C18.0298 15.0498 18.0498 15.0698 18.0598 15.0898C18.1298 15.2498 18.1798 15.4198 18.2098 15.5898C18.2198 15.6698 18.2298 15.7498 18.2298 15.8298C18.2298 15.9598 18.2298 16.0898 18.2298 16.2098C18.2298 16.2798 18.2298 16.3498 18.2098 16.4198C18.1798 16.5898 18.1198 16.7598 18.0398 16.9198C18.0098 16.9898 17.9698 17.0598 17.9298 17.1198C17.8598 17.2398 17.7798 17.3498 17.6798 17.4598C17.6198 17.5298 17.5498 17.5998 17.4798 17.6598C17.3798 17.7498 17.2698 17.8298 17.1498 17.8998V17.9198Z" fill="#7F8A94"/>
</g>
<defs>
<clipPath id="clip0_384_8">
<rect width="32" height="32" fill="white"/>
</clipPath>
</defs>
</svg>
