<svg width="32" height="32" viewBox="0 0 32 32" fill="none" xmlns="http://www.w3.org/2000/svg">
<circle cx="16" cy="16" r="16" fill="#00CC02"/>
<path d="M7.82131 13.8736C9.94439 11.8367 12.8244 10.5843 15.9998 10.5843C19.1752 10.5843 22.0552 11.8367 24.1782 13.8736C24.5721 14.249 25.1936 14.2367 25.569 13.8459C25.9444 13.4551 25.9321 12.8305 25.5413 12.4551C23.0675 10.0767 19.7044 8.61511 15.9998 8.61511C12.2952 8.61511 8.93208 10.0767 6.45516 12.452C6.06439 12.8305 6.05208 13.452 6.42747 13.8459C6.80285 14.2397 7.42747 14.252 7.81824 13.8736H7.82131ZM15.9998 15.5074C17.7475 15.5074 19.3413 16.1567 20.5598 17.2305C20.969 17.5905 21.5905 17.5505 21.9505 17.1443C22.3105 16.7382 22.2705 16.1136 21.8644 15.7536C20.3013 14.3751 18.2459 13.5382 15.9998 13.5382C13.7536 13.5382 11.6982 14.3751 10.1382 15.7536C9.729 16.1136 9.69208 16.7351 10.0521 17.1443C10.4121 17.5536 11.0336 17.5905 11.4429 17.2305C12.6582 16.1567 14.2521 15.5074 16.0029 15.5074H15.9998ZM17.969 20.4305C17.969 19.9082 17.7615 19.4073 17.3922 19.038C17.0229 18.6687 16.522 18.4613 15.9998 18.4613C15.4775 18.4613 14.9766 18.6687 14.6073 19.038C14.238 19.4073 14.0305 19.9082 14.0305 20.4305C14.0305 20.9528 14.238 21.4537 14.6073 21.823C14.9766 22.1923 15.4775 22.3997 15.9998 22.3997C16.522 22.3997 17.0229 22.1923 17.3922 21.823C17.7615 21.4537 17.969 20.9528 17.969 20.4305Z" fill="white"/>
</svg>
