<svg width="32" height="32" viewBox="0 0 32 32" fill="none" xmlns="http://www.w3.org/2000/svg">
    <circle cx="16" cy="16" r="16" fill="#FF9D57"/>
    <path d="M16 9.23a3.077 3.077 0 1 0 0 6.154 3.077 3.077 0 0 0 0-6.154zm-3.281 7.795a3.077 3.077 0 0 0-3.077 3.077v.975a1.26 1.26 0 0 0 1.058 1.245c3.51.573 7.09.573 10.601 0a1.264 1.264 0 0 0 1.059-1.245v-.975a3.076 3.076 0 0 0-3.077-3.077h-.28c-.152 0-.301.024-.446.07l-.71.233a5.95 5.95 0 0 1-3.693 0l-.71-.232a1.478 1.478 0 0 0-.446-.07h-.28z" fill="#fff"/>
</svg>
