<svg width="32" height="32" viewBox="0 0 32 32" fill="none" xmlns="http://www.w3.org/2000/svg">
<g clip-path="url(#clip0_383_2)">
<path d="M31 16C31 7.71573 24.2843 1 16 1C7.71573 1 1 7.71573 1 16C1 24.2843 7.71573 31 16 31C24.2843 31 31 24.2843 31 16Z" fill="white"/>
<path d="M31 16C31 7.71573 24.2843 1 16 1C7.71573 1 1 7.71573 1 16C1 24.2843 7.71573 31 16 31C24.2843 31 31 24.2843 31 16Z" stroke="#E7EBEE" stroke-width="2"/>
<path fill-rule="evenodd" clip-rule="evenodd" d="M22.2198 8.71985C22.362 8.58737 22.55 8.51524 22.7443 8.51867C22.9386 8.5221 23.124 8.60081 23.2614 8.73823C23.3988 8.87564 23.4775 9.06102 23.481 9.25532C23.4844 9.44963 23.4123 9.63767 23.2798 9.77985L21.5458 11.5148C24.2618 13.2918 24.9998 15.9988 24.9998 15.9988C24.9998 15.9988 23.3638 21.9978 16.0018 21.9978C14.3388 21.9978 12.9688 21.6918 11.8418 21.2178L9.78278 23.2778C9.6406 23.4103 9.45255 23.4825 9.25825 23.479C9.06395 23.4756 8.87857 23.3969 8.74115 23.2595C8.60374 23.1221 8.52503 22.9367 8.5216 22.7424C8.51817 22.5481 8.5903 22.36 8.72278 22.2178L22.2198 8.71985ZM13.0078 20.0528L13.9338 19.1268C14.6549 19.6033 15.5184 19.8161 16.3782 19.7291C17.2381 19.6422 18.0416 19.2609 18.6527 18.6498C19.2639 18.0387 19.6451 17.2352 19.7321 16.3753C19.819 15.5154 19.6062 14.6519 19.1298 13.9308L20.4578 12.6028C21.1648 13.0218 21.7138 13.5128 22.1398 13.9928C22.6669 14.5897 23.0946 15.2673 23.4068 15.9998C23.0945 16.7317 22.6667 17.4086 22.1398 18.0048C21.0668 19.2148 19.2128 20.4988 16.0018 20.4988C14.8328 20.4988 13.8438 20.3288 13.0078 20.0538V20.0528ZM18.0318 15.0288C18.2323 15.4487 18.2977 15.9204 18.219 16.379C18.1404 16.8376 17.9214 17.2605 17.5924 17.5895C17.2634 17.9185 16.8405 18.1374 16.3819 18.2161C15.9233 18.2948 15.4516 18.2294 15.0318 18.0288L18.0318 15.0288Z" fill="#7F8A94"/>
<path d="M7.00293 15.994C7.06293 15.784 8.77193 10 16.0019 10C17.0029 10 17.8979 10.11 18.6979 10.303L17.4119 11.589C16.9444 11.5283 16.4734 11.4982 16.0019 11.499C12.7899 11.499 10.9359 12.784 9.86193 13.995C9.3354 14.5913 8.90797 15.2683 8.59593 16C9.01488 16.9792 9.6393 17.857 10.4269 18.574L9.36693 19.636C7.59493 18.011 7.03793 16.124 7.00393 16.006V15.994H7.00293Z" fill="#7F8A94"/>
<path d="M12.3138 16.6863C12.2024 16.0877 12.2384 15.471 12.4187 14.8894C12.599 14.3078 12.9183 13.7789 13.3488 13.3483C13.7794 12.9178 14.3083 12.5986 14.8899 12.4182C15.4715 12.2379 16.0882 12.2019 16.6868 12.3133L15.0308 13.9703C14.5672 14.1928 14.1933 14.5667 13.9708 15.0303L12.3138 16.6863Z" fill="#7F8A94"/>
</g>
<defs>
<clipPath id="clip0_383_2">
<rect width="32" height="32" fill="white"/>
</clipPath>
</defs>
</svg>
