<svg width="24" height="24" viewBox="0 0 24 24" fill="none" xmlns="http://www.w3.org/2000/svg">
<path d="M7.94932 19.0728C7.94932 19.0728 7.8516 19.0361 7.80273 19.0239C7.8516 19.0361 7.90046 19.0606 7.94932 19.0728Z" fill="#7F8A94"/>
<path d="M19.1888 7.1377C19.0544 7.02776 18.9078 6.93004 18.7735 6.83232C18.236 6.45364 17.6496 6.14825 17.0877 5.92837C15.8418 5.42754 14.7546 5.25652 14.7546 5.25652C13.9117 5.10994 13.0078 5 11.9939 5C3.16213 5 1.07329 12.0605 1 12.317C1.03665 12.4758 1.68406 14.6135 3.67518 16.5558C3.67518 16.5558 3.76069 16.6413 3.88284 16.7635C3.88284 16.7635 3.88284 16.7635 3.89506 16.7757C4.13937 16.9956 4.59134 17.3742 5.25097 17.7896C5.9106 18.2171 6.7779 18.6691 7.81621 19.0355C7.86507 19.0478 7.91394 19.0722 7.9628 19.0844C9.12326 19.4386 10.4547 19.6585 12.0061 19.6585C20.9967 19.6585 23 12.3293 23 12.3293C23 12.3293 22.1693 9.31205 19.201 7.14992L19.1888 7.1377ZM19.4942 14.7601C18.1871 16.2382 15.915 17.8018 11.9939 17.8018C10.5769 17.8018 9.37979 17.5941 8.36591 17.2643H8.34148C8.03609 17.1666 7.36424 16.9101 6.58245 16.4336C5.92282 16.0428 5.17768 15.5053 4.53026 14.7723C3.88284 14.0394 3.34536 13.2088 2.95447 12.3048C3.33315 11.4131 3.85841 10.5825 4.50583 9.84953C5.81288 8.37146 8.08495 6.79567 12.0061 6.79567C12.5802 6.79567 13.1421 6.83232 13.7163 6.90561C14.4248 6.99112 15.0722 7.16213 15.6463 7.35758C16.3914 7.6141 17.0144 7.91949 17.442 8.15158C17.6496 8.26152 17.7962 8.35925 17.9062 8.43254C17.955 8.45697 18.0039 8.49361 18.0405 8.51805C18.065 8.53026 18.065 8.54248 18.0772 8.54248C18.6513 8.94559 19.1155 9.39756 19.5064 9.8251C20.1538 10.558 20.6669 11.3765 21.0577 12.2804C20.6791 13.1721 20.1538 14.0028 19.5064 14.7357L19.4942 14.7601Z" fill="#7F8A94"/>
<path d="M16.4764 11.462C16.4764 11.462 16.4764 11.401 16.4642 11.3765C16.2077 10.1794 15.4992 9.16553 14.5098 8.50589C14.0089 8.17608 13.4348 7.94398 12.8118 7.83404L12.8362 7.80961C12.6652 7.77297 12.482 7.78518 12.2988 7.77297C12.201 7.77297 12.1033 7.74854 11.9934 7.74854C11.9689 7.74854 11.9445 7.74854 11.9201 7.74854C11.7124 7.74854 11.5048 7.78518 11.3093 7.80961C11.1749 7.83404 11.0528 7.84626 10.9306 7.8829C10.8329 7.90734 10.7352 7.90734 10.6375 7.93177C10.5397 7.9562 10.4542 8.01727 10.3687 8.05392C10.2466 8.10278 10.1366 8.15164 10.0145 8.21272C9.83125 8.29823 9.64801 8.39595 9.477 8.50589C9.40371 8.55475 9.34263 8.61583 9.28155 8.66469C9.09832 8.79906 8.91509 8.92122 8.75629 9.0678C8.59749 9.21439 8.46312 9.42205 8.32875 9.6175C8.2921 9.67857 8.24324 9.72744 8.19438 9.78851C8.07222 9.97174 7.9745 10.1672 7.87678 10.3626C7.82791 10.4604 7.77905 10.5581 7.74241 10.6558C7.70576 10.7535 7.64468 10.8513 7.60804 10.9612C7.57139 11.0711 7.57139 11.1811 7.54696 11.2788C7.52253 11.3765 7.51031 11.4742 7.4981 11.572C7.46145 11.8041 7.4248 12.0362 7.4248 12.2805C7.4248 12.2805 7.4248 12.3049 7.4248 12.3171C7.4248 12.366 7.43702 12.4148 7.43702 12.4637C7.43702 12.6958 7.43702 12.9279 7.48588 13.16L7.51031 13.1355C7.62025 13.7585 7.85234 14.3327 8.18216 14.8335C8.8418 15.8229 9.86789 16.5436 11.065 16.8002C11.065 16.8002 11.065 16.8002 11.0772 16.8002C11.3582 16.8612 11.6513 16.8857 11.9445 16.8857C11.9567 16.8857 11.9689 16.8857 11.9934 16.8857C12.0178 16.8857 12.03 16.8857 12.0545 16.8857C12.1888 16.8857 12.3232 16.8857 12.4453 16.8857C12.5797 16.8735 12.7019 16.8368 12.8362 16.8124C12.8851 16.8124 12.9218 16.8002 12.9706 16.788C13.2271 16.7269 13.4714 16.6536 13.7035 16.5559C13.7402 16.5436 13.7646 16.5314 13.8013 16.5192C14.3265 16.2871 14.8151 15.9695 15.2305 15.5664C15.6458 15.1511 15.9634 14.6747 16.1833 14.1494C16.2077 14.1006 16.2199 14.0639 16.2321 14.0151C16.3176 13.7952 16.3909 13.5631 16.4398 13.331C16.452 13.2699 16.4642 13.2088 16.4764 13.16C16.5009 13.0378 16.5375 12.9279 16.5497 12.8057C16.5619 12.6836 16.5497 12.5614 16.5497 12.4393C16.5497 12.4026 16.5497 12.3782 16.5497 12.3538C16.5497 12.3293 16.5497 12.3049 16.5497 12.2927C16.5497 12.0239 16.5131 11.7552 16.4642 11.4987L16.4764 11.462ZM13.3982 14.6625C13.3126 14.7113 13.2271 14.7602 13.1416 14.7968C12.9462 14.8824 12.7507 14.9556 12.5431 14.9923C12.4453 15.0167 12.3476 15.0167 12.2499 15.0167C12.1155 15.0289 11.9689 15.0289 11.8346 15.0167C11.7246 15.0167 11.6147 15.0045 11.5048 14.9801C11.3093 14.9434 11.1139 14.8824 10.9306 14.8091C10.894 14.7968 10.8696 14.7724 10.8329 14.7602C10.271 14.4915 9.80682 14.0273 9.53808 13.4654C9.36706 13.1111 9.26934 12.7202 9.26934 12.3049C9.26934 10.8024 10.4909 9.56863 12.0056 9.56863C12.4209 9.56863 12.8118 9.66636 13.1661 9.83737C13.7402 10.1061 14.1922 10.5581 14.4609 11.1322C14.4731 11.1566 14.4975 11.1811 14.5098 11.2055C14.5953 11.401 14.6563 11.6086 14.693 11.8163C14.7052 11.914 14.7174 12.0117 14.7174 12.1094C14.7174 12.2682 14.7174 12.427 14.7174 12.5736C14.7174 12.6591 14.7174 12.7446 14.693 12.8302C14.6563 13.0378 14.5831 13.2455 14.4853 13.4409C14.4487 13.5264 14.3998 13.6119 14.351 13.6852C14.2654 13.8318 14.1677 13.9662 14.0456 14.1006C13.9723 14.1861 13.8868 14.2716 13.8013 14.3449C13.6791 14.4548 13.5447 14.5525 13.3982 14.638V14.6625Z" fill="#7F8A94"/>
</svg>
