<svg width="48" height="48" viewBox="0 0 48 48" fill="none" xmlns="http://www.w3.org/2000/svg">
<g clip-path="url(#clip0_98_213)">
<path d="M24 48C37.2548 48 48 37.2548 48 24C48 10.7452 37.2548 0 24 0C10.7452 0 0 10.7452 0 24C0 37.2548 10.7452 48 24 48Z" fill="#FFEBDE"/>
<path d="M15 16.5C15 16.1022 15.158 15.7206 15.4393 15.4393C15.7206 15.158 16.1022 15 16.5 15H31.5C31.8978 15 32.2794 15.158 32.5607 15.4393C32.842 15.7206 33 16.1022 33 16.5V26C33 26.5304 32.7893 27.0391 32.4142 27.4142C32.0391 27.7893 31.5304 28 31 28H17C16.4696 28 15.9609 27.7893 15.5858 27.4142C15.2107 27.0391 15 26.5304 15 26V16.5Z" fill="#FCA05E"/>
<path d="M34.5 29H13.5C12.6716 29 12 29.6716 12 30.5V31.5C12 32.3284 12.6716 33 13.5 33H34.5C35.3284 33 36 32.3284 36 31.5V30.5C36 29.6716 35.3284 29 34.5 29Z" fill="#FCA05E"/>
</g>
<defs>
<clipPath id="clip0_98_213">
<rect width="48" height="48" fill="white"/>
</clipPath>
</defs>
</svg>
