<svg width="32" height="32" viewBox="0 0 32 32" fill="none" xmlns="http://www.w3.org/2000/svg">
    <circle cx="16" cy="16" r="16" fill="#6D35DE"/>
    <path fill-rule="evenodd" clip-rule="evenodd" d="m11.711 16-.64-7.211a.724.724 0 1 1 1.444-.107L12.942 16h6.116l.427-7.318a.724.724 0 1 1 1.445.107l-.641 7.21h.31a1 1 0 0 1 .883.531l2.284 4.29a2 2 0 0 1 .234.94V22a1 1 0 0 1-1 1H9a1 1 0 0 1-1-1v-.24a2 2 0 0 1 .235-.94l2.283-4.29A1 1 0 0 1 11.4 16h.311zM16 21c.552 0 1-.224 1-.5s-.448-.5-1-.5-1 .224-1 .5.448.5 1 .5z" fill="#fff"/>
</svg>
