<svg width="32" height="33" viewBox="0 0 32 33" fill="none" xmlns="http://www.w3.org/2000/svg">
    <circle cx="16" cy="16.5" r="16" fill="#002061"/>
    <path d="M9.84 15.315v-1.42a6.158 6.158 0 1 1 12.316 0v1.42" stroke="#fff" stroke-width="1.421"/>
    <path d="M7.594 16.262c0-1.046.848-1.895 1.894-1.895h1.655c.523 0 .947.424.947.948v4.607a.947.947 0 0 1-.947.947H9.488a1.895 1.895 0 0 1-1.894-1.895v-2.712zM19.906 15.315c0-.524.424-.948.948-.948h1.658c1.046 0 1.894.848 1.894 1.895v2.713a1.895 1.895 0 0 1-1.894 1.895h-1.658a.947.947 0 0 1-.948-.947v-4.608z" fill="#fff"/>
    <path d="M22.155 20.053a3.79 3.79 0 0 1-3.79 3.79h-.947" stroke="#fff" stroke-width="1.421"/>
    <rect x="15.523" y="22.42" width="3.789" height="2.842" rx="1.421" fill="#fff"/>
</svg>
