<svg width="49" height="48" viewBox="0 0 49 48" fill="none" xmlns="http://www.w3.org/2000/svg">
<g clip-path="url(#clip0_98_228)">
<path d="M24.333 48C37.5878 48 48.333 37.2548 48.333 24C48.333 10.7452 37.5878 0 24.333 0C11.0782 0 0.333008 10.7452 0.333008 24C0.333008 37.2548 11.0782 48 24.333 48Z" fill="#FFEBDE"/>
<path fill-rule="evenodd" clip-rule="evenodd" d="M17.833 15C17.3026 15 16.7939 15.2107 16.4188 15.5858C16.0437 15.9609 15.833 16.4696 15.833 17V32C15.833 32.5304 16.0437 33.0391 16.4188 33.4142C16.7939 33.7893 17.3026 34 17.833 34H30.833C31.3634 34 31.8722 33.7893 32.2472 33.4142C32.6223 33.0391 32.833 32.5304 32.833 32V17C32.833 16.4696 32.6223 15.9609 32.2472 15.5858C31.8722 15.2107 31.3634 15 30.833 15H17.833ZM21.833 30C21.5678 30 21.3134 30.1054 21.1259 30.2929C20.9384 30.4804 20.833 30.7348 20.833 31C20.833 31.2652 20.9384 31.5196 21.1259 31.7071C21.3134 31.8946 21.5678 32 21.833 32H26.833C27.0982 32 27.3526 31.8946 27.5401 31.7071C27.7277 31.5196 27.833 31.2652 27.833 31C27.833 30.7348 27.7277 30.4804 27.5401 30.2929C27.3526 30.1054 27.0982 30 26.833 30H21.833Z" fill="#FCA05E"/>
</g>
<defs>
<clipPath id="clip0_98_228">
<rect width="49" height="48" fill="white"/>
</clipPath>
</defs>
</svg>
