<svg width="42" height="43" viewBox="0 0 42 43" fill="none" xmlns="http://www.w3.org/2000/svg">
<path d="M41.7105 21.2918L23.0295 23.1148L21.1255 42.2478C21.0975 42.4188 20.8525 42.4188 20.8245 42.2478L18.5965 23.1148L0.123505 21.2918C-0.0404953 21.2598 -0.0415024 21.0247 0.122498 20.9927L18.5965 19.4698L20.8245 0.12675C20.8535 -0.04225 21.0965 -0.04225 21.1255 0.12675L23.0295 19.4698L41.7115 20.9927C41.8755 21.0247 41.8755 21.2598 41.7105 21.2918Z" fill="white" fill-opacity="0.25"/>
<path d="M20.8154 26.2907C23.5763 26.2907 25.8144 24.0526 25.8144 21.2917C25.8144 18.5308 23.5763 16.2927 20.8154 16.2927C18.0545 16.2927 15.8164 18.5308 15.8164 21.2917C15.8164 24.0526 18.0545 26.2907 20.8154 26.2907Z" fill="white" fill-opacity="0.25"/>
</svg>
