<svg width="244" height="44" viewBox="0 0 244 44" fill="none" xmlns="http://www.w3.org/2000/svg">
<path d="M209.859 43.2046V0.953125H227.133C236.646 0.953125 242.482 6.3221 242.482 14.9592C242.482 20.7658 239.826 24.9384 235.187 27.0393L243.999 43.2046H233.086L225.324 28.6734H219.78V43.2046H209.859ZM219.78 20.7366H225.033C229.701 20.7366 232.211 18.9275 232.211 14.9592C232.211 10.9908 229.701 9.00659 225.033 9.00659H219.78V20.7366Z" fill="#0D0D0F"/>
<path d="M186.072 0.953125H196.052V28.2065C196.052 37.6606 188.874 43.7882 178.252 43.7882C167.573 43.7882 160.453 37.6606 160.453 28.2065V0.953125H170.374V27.3895C170.374 31.8831 173.584 35.0928 178.252 35.0928C182.921 35.0928 186.072 31.8831 186.072 27.3895V0.953125Z" fill="#0D0D0F"/>
<path d="M117.467 43.2046V0.953125H146.704V9.06495H127.388V17.9938H145.187V26.1056H127.388V35.0928H146.763V43.2046H117.467Z" fill="#0D0D0F"/>
<path d="M79.2422 43.2046V0.953125H96.5163C106.029 0.953125 111.865 6.3221 111.865 14.9592C111.865 20.7658 109.209 24.9384 104.57 27.0393L113.382 43.2046H102.469L94.7072 28.6734H89.1631V43.2046H79.2422ZM89.1631 20.7366H94.4154C99.0841 20.7366 101.593 18.9275 101.593 14.9592C101.593 10.9908 99.0841 9.00659 94.4154 9.00659H89.1631V20.7366Z" fill="#0D0D0F"/>
<path d="M43.6426 43.2046V0.953125H72.8802V9.06495H53.5635V17.9938H71.3628V26.1056H53.5635V35.0928H72.9385V43.2046H43.6426Z" fill="#0D0D0F"/>
<path d="M0.398438 43.2046V0.953125H10.3194V17.9938H27.3017V0.953125H37.2226V43.2046H27.3017V26.1056H10.3194V43.2046H0.398438Z" fill="#0D0D0F"/>
</svg>
