<svg width="80" height="80" viewBox="0 0 80 80" fill="none" xmlns="http://www.w3.org/2000/svg">
<rect x="1.11111" y="1.11111" width="77.7778" height="77.7778" rx="38.8889" stroke="white" stroke-opacity="0.8" stroke-width="2.22222"/>
<path d="M40.4779 26.7036C40.3499 26.5812 40.1797 26.5129 40.0026 26.5129C39.8256 26.5129 39.6553 26.5812 39.5274 26.7036L23.7063 41.8175C23.6391 41.8817 23.5857 41.959 23.5492 42.0445C23.5127 42.13 23.4939 42.2221 23.494 42.315L23.4915 56.4999C23.4915 57.2292 23.7812 57.9287 24.2969 58.4444C24.8126 58.9602 25.5121 59.2499 26.2415 59.2499H34.5001C34.8647 59.2499 35.2145 59.105 35.4723 58.8472C35.7302 58.5893 35.8751 58.2396 35.8751 57.8749V46.1874C35.8751 46.0051 35.9475 45.8302 36.0764 45.7013C36.2053 45.5723 36.3802 45.4999 36.5626 45.4999H43.4376C43.6199 45.4999 43.7948 45.5723 43.9237 45.7013C44.0526 45.8302 44.1251 46.0051 44.1251 46.1874V57.8749C44.1251 58.2396 44.2699 58.5893 44.5278 58.8472C44.7856 59.105 45.1354 59.2499 45.5001 59.2499H53.7552C54.4846 59.2499 55.184 58.9602 55.6998 58.4444C56.2155 57.9287 56.5052 57.2292 56.5052 56.4999V42.315C56.5053 42.2221 56.4866 42.13 56.4501 42.0445C56.4136 41.959 56.3601 41.8817 56.2929 41.8175L40.4779 26.7036Z" fill="white"/>
<path d="M60.1876 38.9816L53.7595 32.832V23.5C53.7595 23.1353 53.6146 22.7856 53.3568 22.5277C53.0989 22.2699 52.7491 22.125 52.3845 22.125H48.2595C47.8948 22.125 47.5451 22.2699 47.2872 22.5277C47.0293 22.7856 46.8845 23.1353 46.8845 23.5V26.25L41.907 21.4908C41.4412 21.0198 40.7485 20.75 40 20.75C39.2541 20.75 38.5632 21.0198 38.0974 21.4916L19.8185 38.9799C19.2839 39.4955 19.2169 40.3438 19.7033 40.9023C19.8255 41.0433 19.975 41.158 20.1429 41.2394C20.3108 41.3207 20.4934 41.3671 20.6798 41.3756C20.8661 41.3841 21.0523 41.3546 21.2269 41.2889C21.4014 41.2232 21.5608 41.1227 21.6953 40.9934L39.5274 23.9538C39.6553 23.8314 39.8256 23.763 40.0026 23.763C40.1797 23.763 40.3499 23.8314 40.4778 23.9538L58.3116 40.9934C58.5743 41.2454 58.9262 41.3829 59.2901 41.3758C59.654 41.3687 60.0002 41.2176 60.2529 40.9556C60.7806 40.4091 60.7367 39.5067 60.1876 38.9816Z" fill="white"/>
</svg>
