<svg width="24" height="24" viewBox="0 0 24 24" fill="none" xmlns="http://www.w3.org/2000/svg">
<path fill-rule="evenodd" clip-rule="evenodd" d="M6.41612 1.83358C6.57336 1.95707 6.74996 2.12322 6.95313 2.32389C7.38842 2.7523 7.89341 3.43869 8.32673 4.09762C8.76492 4.76393 9.17094 5.46537 9.39852 5.95358L9.39866 5.95389L9.39881 5.95421C9.5278 6.2316 9.64407 6.48297 9.72579 6.70329C9.80878 6.92702 9.87775 7.17311 9.8782 7.44167C9.87913 8.00382 9.57401 8.43768 9.2801 8.83785C9.19566 8.95281 9.12392 9.04701 9.06209 9.1282C8.9288 9.30322 8.84143 9.41795 8.77148 9.55065C8.70325 9.68008 8.68334 9.77353 8.71563 9.92397C8.7622 10.1409 8.96465 10.6157 9.35777 11.2369C9.73795 11.8377 10.2585 12.5153 10.8804 13.1352C11.5022 13.755 12.169 14.2618 12.7578 14.6286C13.3645 15.0065 13.8317 15.2004 14.0549 15.248C14.2102 15.2812 14.3072 15.2604 14.4369 15.1929C14.5737 15.1217 14.6954 15.0288 14.8847 14.8843C14.959 14.8275 15.0439 14.7627 15.1441 14.6882L15.1443 14.6881L15.1519 14.6825C15.5534 14.3841 15.9995 14.0527 16.565 14.0533C16.8444 14.0536 17.0952 14.1325 17.316 14.2226C17.5269 14.3087 17.7693 14.4308 18.0351 14.5647L18.0574 14.5759C18.5234 14.8109 19.2162 15.209 19.8869 15.6429C20.5458 16.0691 21.241 16.5667 21.6739 17.0029L21.6745 17.0035C21.8758 17.2068 22.0423 17.3834 22.1661 17.5406C22.2859 17.6927 22.4175 17.8895 22.473 18.1344C22.5354 18.4101 22.4788 18.6396 22.4207 18.7987C22.3945 18.8705 22.3637 18.9393 22.3415 18.9886C22.338 18.9963 22.3347 19.0038 22.3314 19.0111C22.3108 19.0568 22.2928 19.0967 22.2737 19.1423L22.2732 19.1434L22.2728 19.1445C22.0769 19.6091 21.8385 20.0547 21.5608 20.4755L21.56 20.4768L21.5592 20.4781C21.0166 21.2933 20.5061 21.8259 19.7126 22.1955C19.3003 22.3875 18.7111 22.5815 17.7956 22.4673C16.9149 22.3575 15.7692 21.9676 14.2055 21.0918L14.2052 21.0916C11.7029 19.6883 9.96667 18.4784 7.72697 16.245C5.49384 14.0181 4.3962 12.5647 2.85859 9.77134C1.31064 6.95927 1.31286 5.22515 1.75492 4.28053C2.12608 3.4874 2.66404 2.97929 3.47652 2.4395L3.47812 2.43844L3.47973 2.43739C3.90104 2.16058 4.34682 1.92293 4.81148 1.72743L4.81301 1.72678L4.81454 1.72615C4.86053 1.70704 4.90075 1.68901 4.94673 1.66839C4.95394 1.66516 4.9613 1.66187 4.96884 1.65849C5.01825 1.63638 5.08716 1.60564 5.15885 1.5796C5.31777 1.52187 5.54675 1.46548 5.82202 1.52755C6.06676 1.58274 6.26365 1.71383 6.41612 1.83358ZM5.39179 3.11063C5.01264 3.27025 4.64886 3.46417 4.30498 3.68997C3.61861 4.14617 3.32437 4.46573 3.11351 4.91631C2.97338 5.21576 2.71403 6.3982 4.17265 9.048C5.6416 11.7166 6.65334 13.056 8.78614 15.1828C10.9123 17.303 12.5332 18.4341 14.9385 19.7831C16.4105 20.6075 17.3648 20.902 17.9812 20.9789C18.5627 21.0514 18.8677 20.9343 19.0792 20.8357C19.5333 20.6242 19.8543 20.332 20.3098 19.648C20.5361 19.3047 20.7305 18.9414 20.8903 18.5625C20.9118 18.511 20.933 18.4633 20.9509 18.4236C20.8809 18.3405 20.7738 18.2258 20.609 18.0593C20.2974 17.7455 19.7192 17.3209 19.0721 16.9023C18.4368 16.4913 17.791 16.1216 17.3823 15.9154C17.0872 15.7668 16.8983 15.6722 16.7491 15.6114C16.604 15.5521 16.5618 15.5533 16.5634 15.5533C16.577 15.5533 16.5306 15.5268 16.0388 15.8922C15.9886 15.9295 15.9343 15.9712 15.8768 16.0152C15.6577 16.1832 15.3923 16.3866 15.1294 16.5235C14.7366 16.728 14.2856 16.831 13.742 16.715C13.2663 16.6136 12.6246 16.3128 11.9648 15.9018C11.287 15.4796 10.5295 14.9034 9.82145 14.1976C9.11354 13.4919 8.52454 12.7253 8.09027 12.0391C7.66893 11.3733 7.35201 10.7184 7.24904 10.2388C7.13181 9.69268 7.23869 9.24168 7.44456 8.85115C7.57723 8.59949 7.77555 8.33947 7.93877 8.12546C7.98679 8.06249 8.03178 8.00351 8.07116 7.94989C8.38645 7.5206 8.37905 7.45217 8.37824 7.44471C8.37822 7.44446 8.3782 7.44428 8.3782 7.44415C8.37817 7.4297 8.37484 7.37433 8.31943 7.22497C8.26277 7.07221 8.17456 6.8789 8.03875 6.58685C7.85329 6.1891 7.48975 5.55485 7.07345 4.9218C6.65232 4.28142 6.21796 3.70485 5.90057 3.39259L5.90003 3.39206L5.8995 3.39153C5.73202 3.2261 5.61684 3.11889 5.53368 3.0491C5.49327 3.06716 5.44458 3.08866 5.39179 3.11063Z" fill="white"/>
</svg>
