<svg width="18" height="18" viewBox="0 0 18 18" fill="none" xmlns="http://www.w3.org/2000/svg">
<path d="M13.0329 9.04623C13.0266 7.8762 13.5558 6.99309 14.627 6.34272C14.0276 5.48512 13.1222 5.01328 11.9267 4.92083C10.7949 4.83156 9.55792 5.58077 9.10521 5.58077C8.62699 5.58077 7.53029 4.95271 6.6695 4.95271C4.89054 4.9814 3 6.37141 3 9.19926C3 10.0345 3.15303 10.8975 3.45909 11.788C3.86716 12.958 5.34006 15.8273 6.87673 15.7795C7.68013 15.7604 8.24761 15.2088 9.2933 15.2088C10.3071 15.2088 10.8332 15.7795 11.729 15.7795C13.2784 15.7572 14.6111 13.1493 15 11.9761C12.9214 10.9973 13.0329 9.1068 13.0329 9.04623ZM11.2285 3.81137C12.0988 2.77843 12.0191 1.83794 11.9936 1.5C11.2253 1.54463 10.3358 2.02285 9.82891 2.61265C9.27099 3.24389 8.94261 4.02497 9.01275 4.90489C9.84485 4.96865 10.6036 4.54145 11.2285 3.81137Z" fill="#23272F"/>
</svg>
