<svg width="24" height="24" viewBox="0 0 24 24" fill="none" xmlns="http://www.w3.org/2000/svg">
<path d="M19.0588 12.9273V7.53818C19.0588 5.94967 19.0588 5.15541 18.7511 4.54868C18.4804 4.01499 18.0484 3.58108 17.5172 3.30915C16.9132 3 16.1225 3 14.5412 3H8.51765C6.93632 3 6.14566 3 5.54167 3.30915C5.01039 3.58108 4.57845 4.01499 4.30775 4.54868C4 5.15541 4 5.94967 4 7.53818V17.3709C4 18.9594 4 19.7537 4.30775 20.3604C4.57845 20.8941 5.01039 21.328 5.54167 21.5999C6.14566 21.9091 6.93628 21.9091 8.51751 21.9091H12M13.4118 11.5091H7.76471M9.64706 15.2909H7.76471M15.2941 7.72727H7.76471M14.3529 19.0727L17.1765 21.9091M17.1765 21.9091L20 19.0727M17.1765 21.9091V16.2364" stroke="#BBBBBB" stroke-width="2" stroke-linecap="round" stroke-linejoin="round"/>
</svg>
