<svg width="24" height="24" viewBox="0 0 24 24" fill="none" xmlns="http://www.w3.org/2000/svg">
<path fill-rule="evenodd" clip-rule="evenodd" d="M4.125 5.25C3.50368 5.25 3 5.75368 3 6.375V17.625C3 18.2463 3.50368 18.75 4.125 18.75H19.875C20.4963 18.75 21 18.2463 21 17.625V6.375C21 5.75368 20.4963 5.25 19.875 5.25H4.125ZM1.5 6.375C1.5 4.92525 2.67525 3.75 4.125 3.75H19.875C21.3247 3.75 22.5 4.92525 22.5 6.375V17.625C22.5 19.0747 21.3247 20.25 19.875 20.25H4.125C2.67525 20.25 1.5 19.0747 1.5 17.625V6.375Z" fill="white"/>
<path fill-rule="evenodd" clip-rule="evenodd" d="M4.65802 7.03958C4.91232 6.71262 5.38353 6.65372 5.71049 6.90802L12 11.7999L18.2896 6.90802C18.6165 6.65372 19.0877 6.71262 19.342 7.03958C19.5964 7.36654 19.5375 7.83775 19.2105 8.09205L12.4605 13.342C12.1897 13.5527 11.8104 13.5527 11.5396 13.342L4.78958 8.09205C4.46262 7.83775 4.40372 7.36654 4.65802 7.03958Z" fill="white"/>
</svg>
