<svg width="24" height="24" viewBox="0 0 24 24" fill="none" xmlns="http://www.w3.org/2000/svg">
<g clip-path="url(#clip0_263_2049)">
<path d="M3 20H21V12C21 11.2044 20.6839 10.4413 20.1213 9.87868C19.5587 9.31607 18.7956 9 18 9H6C5.20435 9 4.44129 9.31607 3.87868 9.87868C3.31607 10.4413 3 11.2044 3 12V20Z" stroke="#21272A" stroke-width="1.5" stroke-linecap="round" stroke-linejoin="round"/>
<path d="M2.99609 14.803C3.30809 14.938 3.65009 15.007 4.00009 15C4.38959 15.0082 4.77522 14.9214 5.12367 14.7472C5.47212 14.573 5.77292 14.3165 6.00009 14C6.22726 13.6835 6.52807 13.4271 6.87652 13.2529C7.22497 13.0787 7.6106 12.9919 8.00009 13C8.38959 12.9919 8.77522 13.0787 9.12367 13.2529C9.47212 13.4271 9.77292 13.6835 10.0001 14C10.2273 14.3165 10.5281 14.573 10.8765 14.7472C11.225 14.9214 11.6106 15.0082 12.0001 15C12.3896 15.0082 12.7752 14.9214 13.1237 14.7472C13.4721 14.573 13.7729 14.3165 14.0001 14C14.2273 13.6835 14.5281 13.4271 14.8765 13.2529C15.225 13.0787 15.6106 12.9919 16.0001 13C16.3896 12.9919 16.7752 13.0787 17.1237 13.2529C17.4721 13.4271 17.7729 13.6835 18.0001 14C18.2273 14.3165 18.5281 14.573 18.8765 14.7472C19.225 14.9214 19.6106 15.0082 20.0001 15C20.3501 15.007 20.6921 14.938 21.0041 14.803" stroke="#21272A" stroke-width="1.5" stroke-linecap="round" stroke-linejoin="round"/>
<path d="M11.9994 4L13.4644 5.638C13.7258 5.91903 13.9008 6.26935 13.9686 6.64715C14.0363 7.02495 13.994 7.41426 13.8465 7.76862C13.699 8.12298 13.4527 8.42742 13.1369 8.64561C12.8211 8.86379 12.4493 8.98651 12.0656 8.99911C11.682 9.0117 11.3029 8.91365 10.9735 8.71665C10.6441 8.51964 10.3783 8.23202 10.2079 7.88809C10.0375 7.54417 9.96967 7.15848 10.0125 6.77705C10.0553 6.39563 10.207 6.03458 10.4494 5.737L11.9994 4Z" stroke="#21272A" stroke-width="1.5" stroke-linecap="round" stroke-linejoin="round"/>
</g>
<defs>
<clipPath id="clip0_263_2049">
<rect width="24" height="24" fill="white"/>
</clipPath>
</defs>
</svg>
