<svg width="16" height="16" viewBox="0 0 16 16" fill="none" xmlns="http://www.w3.org/2000/svg">
<path d="M8 4.4V14M8 4.4H5.87857C5.56599 4.4 5.26622 4.27357 5.0452 4.04853C4.82417 3.82348 4.7 3.51826 4.7 3.2C4.7 2.88174 4.82417 2.57652 5.0452 2.35147C5.26622 2.12643 5.56599 2 5.87857 2C7.52857 2 8 4.4 8 4.4ZM8 4.4H10.1214C10.434 4.4 10.7338 4.27357 10.9548 4.04853C11.1758 3.82348 11.3 3.51826 11.3 3.2C11.3 2.88174 11.1758 2.57652 10.9548 2.35147C10.7338 2.12643 10.434 2 10.1214 2C8.47143 2 8 4.4 8 4.4ZM12.8 7.4V12.08C12.8 12.7521 12.8 13.0881 12.6692 13.3448C12.5542 13.5706 12.3706 13.7542 12.1448 13.8692C11.8881 14 11.5521 14 10.88 14L5.12 14C4.44794 14 4.11191 14 3.85521 13.8692C3.62942 13.7542 3.44584 13.5706 3.33079 13.3448C3.2 13.0881 3.2 12.7521 3.2 12.08V7.4M2 5.36L2 6.44C2 6.77603 2 6.94405 2.0654 7.07239C2.12292 7.18529 2.21471 7.27708 2.32761 7.3346C2.45595 7.4 2.62397 7.4 2.96 7.4L13.04 7.4C13.376 7.4 13.544 7.4 13.6724 7.3346C13.7853 7.27708 13.8771 7.18529 13.9346 7.07239C14 6.94405 14 6.77603 14 6.44V5.36C14 5.02397 14 4.85595 13.9346 4.72761C13.8771 4.61471 13.7853 4.52292 13.6724 4.4654C13.544 4.4 13.376 4.4 13.04 4.4L2.96 4.4C2.62397 4.4 2.45595 4.4 2.32761 4.4654C2.21471 4.52292 2.12292 4.61471 2.0654 4.72761C2 4.85595 2 5.02397 2 5.36Z" stroke="#191919" stroke-linecap="round" stroke-linejoin="round"/>
</svg>
