<svg width="15" height="16" viewBox="0 0 15 16" fill="none" xmlns="http://www.w3.org/2000/svg">
<path d="M7.04336 2.54995C7.19008 2.23819 7.26343 2.0823 7.36302 2.0325C7.44967 1.98917 7.55033 1.98917 7.63698 2.0325C7.73657 2.0823 7.80992 2.23819 7.95664 2.54995L9.34857 5.50774C9.39189 5.59978 9.41354 5.6458 9.44519 5.68153C9.47322 5.71316 9.50682 5.7388 9.54416 5.75701C9.58632 5.77757 9.63473 5.78499 9.73156 5.79984L12.8451 6.27718C13.173 6.32745 13.3369 6.35258 13.4128 6.43658C13.4788 6.50966 13.5098 6.61008 13.4973 6.70988C13.4828 6.82459 13.3641 6.94584 13.1268 7.18834L10.8746 9.48918C10.8044 9.56091 10.7693 9.59677 10.7467 9.63944C10.7266 9.67722 10.7137 9.71873 10.7088 9.76165C10.7032 9.81014 10.7115 9.8608 10.728 9.96211L11.2594 13.2119C11.3155 13.5547 11.3435 13.7261 11.2908 13.8278C11.245 13.9163 11.1636 13.9784 11.0692 13.9967C10.9607 14.0178 10.8139 13.9369 10.5205 13.775L7.73703 12.2396C7.6503 12.1918 7.60694 12.1679 7.56125 12.1585C7.5208 12.1501 7.4792 12.1501 7.43875 12.1585C7.39306 12.1679 7.3497 12.1918 7.26297 12.2396L4.47951 13.775C4.18605 13.9369 4.03932 14.0178 3.93083 13.9967C3.83644 13.9784 3.75498 13.9163 3.70916 13.8278C3.6565 13.7261 3.68452 13.5547 3.74057 13.2119L4.27197 9.96211C4.28853 9.8608 4.29682 9.81014 4.29121 9.76165C4.28625 9.71873 4.27338 9.67722 4.25333 9.63944C4.23068 9.59677 4.19558 9.56091 4.12537 9.48918L1.87324 7.18834C1.63587 6.94584 1.51718 6.82459 1.50274 6.70988C1.49018 6.61008 1.52122 6.50966 1.58723 6.43658C1.66309 6.35258 1.82703 6.32745 2.1549 6.27718L5.26844 5.79984C5.36527 5.78499 5.41368 5.77757 5.45584 5.75701C5.49318 5.7388 5.52678 5.71316 5.55481 5.68153C5.58646 5.6458 5.60812 5.59978 5.65143 5.50774L7.04336 2.54995Z" fill="#0095FF"/>
</svg>
