<svg width="15" height="16" viewBox="0 0 15 16" fill="none" xmlns="http://www.w3.org/2000/svg">
<g clip-path="url(#clip0_37_9)">
<path d="M10.9578 8.486C10.701 8.264 10.4418 8.0948 10.1334 8.006C9.40021 7.7924 8.66581 7.5824 7.92901 7.3808C7.90021 7.3724 7.87141 7.3652 7.83541 7.3556C7.85701 7.3172 7.88941 7.2944 7.91821 7.2716C8.51941 6.8072 9.10621 6.3248 9.74581 5.912C10.1226 5.6684 10.515 5.4512 10.9554 5.3408C11.8434 5.1188 12.7194 5.6024 12.9522 6.446C13.2066 7.3688 12.6738 8.3744 11.6538 8.5616C11.6346 8.5652 11.6166 8.57 11.5998 8.5748C11.5878 8.6 11.6058 8.6096 11.6166 8.6204C12.1386 9.134 12.1806 9.9032 11.8014 10.5212C11.4654 11.0684 10.9758 11.4044 10.3386 11.4848C9.58501 11.5808 8.99221 11.2868 8.55661 10.6712C8.25421 10.244 8.08741 9.7568 7.95901 9.2552C7.82821 8.7428 7.71661 8.2256 7.62781 7.7036C7.62541 7.6904 7.62421 7.676 7.62301 7.6616C7.61341 7.6052 7.61221 7.5776 7.69261 7.598C8.37301 7.7732 9.04381 7.9784 9.71941 8.1668C10.1226 8.2796 10.5258 8.3936 10.959 8.4872L10.9578 8.486Z" fill="#505050"/>
<path d="M7.38661 7.5788C7.34701 7.892 7.28341 8.1896 7.21741 8.486C7.11661 8.9396 7.02301 9.3944 6.86461 9.8324C6.71941 10.2332 6.52981 10.6088 6.23221 10.922C5.67061 11.5124 4.82221 11.6732 4.08781 11.318C3.54421 11.0552 3.16021 10.6412 3.00541 10.0496C2.87341 9.5468 2.96221 9.0824 3.31981 8.6864C3.34621 8.6576 3.37141 8.6264 3.39661 8.5964C3.40021 8.5928 3.40141 8.5868 3.40621 8.5736C3.28741 8.5532 3.17221 8.5244 3.05941 8.4824C2.36701 8.2256 1.93141 7.5068 1.98901 6.7688C2.04541 6.0488 2.58181 5.4548 3.23821 5.3216C3.65341 5.2364 4.05061 5.3108 4.43581 5.4728C4.89541 5.666 5.31181 5.936 5.71141 6.23C6.20101 6.59 6.68101 6.962 7.16581 7.3292C7.17181 7.334 7.17781 7.34 7.19221 7.3532C7.02301 7.3976 6.86101 7.4384 6.70021 7.4852C6.05461 7.6688 5.40541 7.8416 4.76341 8.0372C4.48501 8.1224 4.25341 8.2856 4.03861 8.4776C5.16421 8.2232 6.26461 7.8764 7.38781 7.5776L7.38661 7.5788Z" fill="#505050"/>
<path d="M7.35781 7.13119C6.73021 6.64999 6.08701 6.19999 5.50021 5.67679C5.07541 5.29759 4.70821 4.86799 4.54021 4.31119C4.31701 3.57079 4.45621 2.91319 5.04061 2.38039C5.26861 2.17279 5.54821 2.06599 5.85061 2.02039C6.16861 1.97239 6.47461 2.00959 6.76741 2.15119C7.11181 2.31799 7.33621 2.58799 7.47061 2.93959C7.47901 2.95999 7.48621 2.98039 7.49701 3.01159C7.52581 2.94319 7.54981 2.88079 7.57861 2.82079C7.80661 2.33359 8.19781 2.07799 8.72461 2.01439C9.60781 1.90759 10.359 2.52559 10.5234 3.33439C10.6206 3.81199 10.5306 4.25839 10.3086 4.68199C10.023 5.22799 9.58981 5.64319 9.10861 6.01399C8.62861 6.38359 8.14861 6.75199 7.66861 7.12039C7.65781 7.12879 7.64701 7.13479 7.62421 7.14919C7.62421 7.03999 7.62421 6.94399 7.62421 6.84679C7.62421 6.15919 7.62301 5.47279 7.62421 4.78519C7.62421 4.51519 7.58581 4.24879 7.53421 3.98479C7.53181 3.97159 7.52461 3.95959 7.51381 3.93439C7.42501 4.25239 7.37221 4.56199 7.37101 4.87879C7.36861 5.59999 7.37101 6.31999 7.36861 7.04119C7.36861 7.06999 7.37701 7.10119 7.35781 7.13239V7.13119Z" fill="#505050"/>
<path d="M7.66141 14C7.94341 13.9952 8.22661 13.9928 8.50621 13.994C8.44501 13.802 8.38021 13.6112 8.32021 13.418C8.01181 12.4208 7.84741 11.3984 7.77541 10.3592C7.74181 9.86719 7.71061 9.37519 7.60501 8.89279C7.57021 8.73559 7.53901 8.57719 7.50181 8.40439C7.31821 9.07519 7.22941 9.73999 7.21981 10.418C7.20301 11.624 7.34701 12.8108 7.65541 13.9772C7.65781 13.9856 7.66021 13.994 7.66141 14.0012V14Z" fill="#505050"/>
</g>
<defs>
<clipPath id="clip0_37_9">
<rect width="11.0316" height="12" fill="white" transform="translate(1.98421 2)"/>
</clipPath>
</defs>
</svg>
