<svg width="20" height="20" viewBox="0 0 20 20" fill="none" xmlns="http://www.w3.org/2000/svg">
<path d="M11.75 1H4.75C4.28587 1 3.84075 1.18964 3.51256 1.52721C3.18437 1.86478 3 2.32261 3 2.8V17.2C3 17.6774 3.18437 18.1353 3.51256 18.4728C3.84075 18.8104 4.28587 19 4.75 19H15.25C15.7141 19 16.1592 18.8104 16.4874 18.4728C16.8156 18.1353 17 17.6774 17 17.2V6.40001L11.75 1Z" stroke="white" stroke-width="2" stroke-linecap="round" stroke-linejoin="round"/>
<path d="M11.748 1V6.40001H16.998" stroke="white" stroke-width="2" stroke-linecap="round" stroke-linejoin="round"/>
<path d="M13.498 10.8998H6.49805" stroke="white" stroke-width="2" stroke-linecap="round" stroke-linejoin="round"/>
<path d="M13.498 14.5H6.49805" stroke="white" stroke-width="2" stroke-linecap="round" stroke-linejoin="round"/>
<path d="M8.24805 7.29993H7.37305H6.49805" stroke="white" stroke-width="2" stroke-linecap="round" stroke-linejoin="round"/>
</svg>
