<svg width="20" height="20" viewBox="0 0 20 20" fill="none" xmlns="http://www.w3.org/2000/svg">
<path d="M13.2736 17.5V15.8333C13.2736 14.9493 12.9288 14.1014 12.315 13.4763C11.7012 12.8512 10.8687 12.5 10.0006 12.5H4.27296C3.40492 12.5 2.57243 12.8512 1.95863 13.4763C1.34483 14.1014 1 14.9493 1 15.8333V17.5" stroke="white" stroke-width="2" stroke-linecap="round" stroke-linejoin="round"/>
<path d="M7.13624 9.16667C8.94385 9.16667 10.4092 7.67428 10.4092 5.83333C10.4092 3.99238 8.94385 2.5 7.13624 2.5C5.32864 2.5 3.86328 3.99238 3.86328 5.83333C3.86328 7.67428 5.32864 9.16667 7.13624 9.16667Z" stroke="white" stroke-width="2" stroke-linecap="round" stroke-linejoin="round"/>
<path d="M14.0898 9.16667L15.7263 10.8333L18.9993 7.5" stroke="white" stroke-width="2" stroke-linecap="round" stroke-linejoin="round"/>
</svg>
