<svg width="20" height="20" viewBox="0 0 20 20" fill="none" xmlns="http://www.w3.org/2000/svg">
<path d="M14.0918 17.5V15.8333C14.0918 14.9493 13.747 14.1014 13.1332 13.4763C12.5194 12.8512 11.6869 12.5 10.8189 12.5H4.27296C3.40492 12.5 2.57243 12.8512 1.95863 13.4763C1.34483 14.1014 1 14.9493 1 15.8333V17.5" stroke="white" stroke-width="2" stroke-linecap="round" stroke-linejoin="round"/>
<path d="M7.54444 9.16667C9.35205 9.16667 10.8174 7.67428 10.8174 5.83333C10.8174 3.99238 9.35205 2.5 7.54444 2.5C5.73684 2.5 4.27148 3.99238 4.27148 5.83333C4.27148 7.67428 5.73684 9.16667 7.54444 9.16667Z" stroke="white" stroke-width="2" stroke-linecap="round" stroke-linejoin="round"/>
<path d="M18.9996 17.5V15.8333C18.9991 15.0948 18.7577 14.3773 18.3134 13.7936C17.8691 13.2099 17.2471 12.793 16.5449 12.6083" stroke="white" stroke-width="2" stroke-linecap="round" stroke-linejoin="round"/>
<path d="M13.2734 2.60834C13.9775 2.79192 14.6015 3.20892 15.0471 3.7936C15.4927 4.37827 15.7346 5.09736 15.7346 5.8375C15.7346 6.57765 15.4927 7.29674 15.0471 7.88141C14.6015 8.46609 13.9775 8.88309 13.2734 9.06667" stroke="white" stroke-width="2" stroke-linecap="round" stroke-linejoin="round"/>
</svg>
