<svg width="20" height="20" viewBox="0 0 20 20" fill="none" xmlns="http://www.w3.org/2000/svg">
<path d="M13.5 3H15.25C15.7141 3 16.1592 3.1873 16.4874 3.5207C16.8156 3.8541 17 4.30628 17 4.77778V17.2222C17 17.6937 16.8156 18.1459 16.4874 18.4793C16.1592 18.8127 15.7141 19 15.25 19H4.75C4.28587 19 3.84075 18.8127 3.51256 18.4793C3.18437 18.1459 3 17.6937 3 17.2222V4.77778C3 4.30628 3.18437 3.8541 3.51256 3.5207C3.84075 3.1873 4.28587 3 4.75 3H6.5" stroke="white" stroke-width="2" stroke-linecap="round" stroke-linejoin="round"/>
<path d="M12.25 1H7.75C7.33579 1 7 1.33579 7 1.75V3.25C7 3.66421 7.33579 4 7.75 4H12.25C12.6642 4 13 3.66421 13 3.25V1.75C13 1.33579 12.6642 1 12.25 1Z" stroke="white" stroke-width="2" stroke-linecap="round" stroke-linejoin="round"/>
</svg>
