<svg width="20" height="20" viewBox="0 0 20 20" fill="none" xmlns="http://www.w3.org/2000/svg">
<path d="M17.2 6H2.8C1.80589 6 1 6.76751 1 7.71429V16.2857C1 17.2325 1.80589 18 2.8 18H17.2C18.1941 18 19 17.2325 19 16.2857V7.71429C19 6.76751 18.1941 6 17.2 6Z" stroke="white" stroke-width="2" stroke-linecap="round" stroke-linejoin="round"/>
<path d="M14 18V3.77778C14 3.30628 13.7893 2.8541 13.4142 2.5207C13.0391 2.1873 12.5304 2 12 2H8C7.46957 2 6.96086 2.1873 6.58579 2.5207C6.21071 2.8541 6 3.30628 6 3.77778V18" stroke="white" stroke-width="2" stroke-linecap="round" stroke-linejoin="round"/>
</svg>
