<svg width="23" height="25" viewBox="0 0 23 25" fill="none" xmlns="http://www.w3.org/2000/svg">
<path d="M21.5522 12.8645C21.5522 18.7763 16.8785 23.5376 11.1511 23.5376C5.42367 23.5376 0.75 18.7763 0.75 12.8645C0.75 6.95278 5.42367 2.19141 11.1511 2.19141C16.8785 2.19141 21.5522 6.95278 21.5522 12.8645Z" fill="white" stroke="#999999" stroke-width="1.5"/>
<path d="M11.3273 6.53781C11.9033 6.53781 12.4206 6.61248 12.8793 6.76181C13.338 6.90047 13.7273 7.10314 14.0473 7.36981C14.3673 7.62581 14.6126 7.93514 14.7833 8.29781C14.954 8.66047 15.0393 9.06048 15.0393 9.49781V9.67381C15.0393 9.92981 15.0073 10.1751 14.9433 10.4098C14.89 10.6338 14.7886 10.8631 14.6393 11.0978C14.5006 11.3325 14.3033 11.5831 14.0473 11.8498C13.802 12.1165 13.4926 12.4205 13.1193 12.7618C12.8846 12.9751 12.698 13.1618 12.5593 13.3218C12.4206 13.4711 12.314 13.6151 12.2393 13.7538C12.1646 13.8818 12.1166 14.0151 12.0953 14.1538C12.074 14.2818 12.0633 14.4311 12.0633 14.6018C12.0633 14.8471 11.9673 15.0391 11.7753 15.1778C11.594 15.3165 11.3806 15.3858 11.1353 15.3858C10.8686 15.3858 10.6393 15.3218 10.4473 15.1938C10.2553 15.0551 10.1593 14.8418 10.1593 14.5538C10.1593 14.2765 10.1753 14.0258 10.2073 13.8018C10.2393 13.5778 10.298 13.3645 10.3833 13.1618C10.4793 12.9485 10.6126 12.7405 10.7833 12.5378C10.9646 12.3245 11.1993 12.0898 11.4873 11.8338C11.818 11.5458 12.0793 11.3058 12.2713 11.1138C12.474 10.9111 12.6286 10.7298 12.7353 10.5698C12.842 10.4098 12.9113 10.2658 12.9433 10.1378C12.9753 9.99914 12.9913 9.84981 12.9913 9.68981V9.60981C12.9913 9.43914 12.9593 9.27914 12.8953 9.12981C12.8313 8.98048 12.73 8.84714 12.5913 8.72981C12.4633 8.61247 12.2873 8.52181 12.0633 8.45781C11.85 8.38314 11.5833 8.34581 11.2633 8.34581C10.8366 8.34581 10.4633 8.40981 10.1433 8.53781C9.82331 8.66581 9.51931 8.83114 9.23131 9.03381C9.01798 9.18314 8.80465 9.23647 8.59131 9.19381C8.38865 9.14048 8.21265 9.01248 8.06331 8.80981C7.91398 8.61781 7.83931 8.40447 7.83931 8.16981C7.84998 7.92448 7.96198 7.72181 8.17531 7.56181C8.56998 7.25247 9.02331 7.00714 9.53531 6.82581C10.058 6.63381 10.6553 6.53781 11.3273 6.53781ZM11.1193 16.4578C11.4606 16.4578 11.7486 16.5751 11.9833 16.8098C12.218 17.0445 12.3353 17.3325 12.3353 17.6738C12.3353 18.0151 12.218 18.3031 11.9833 18.5378C11.7486 18.7725 11.4606 18.8898 11.1193 18.8898C10.778 18.8898 10.49 18.7725 10.2553 18.5378C10.0206 18.3031 9.90331 18.0151 9.90331 17.6738C9.90331 17.3325 10.0206 17.0445 10.2553 16.8098C10.49 16.5751 10.778 16.4578 11.1193 16.4578Z" fill="#999999"/>
</svg>
