<svg width="24" height="25" viewBox="0 0 24 25" fill="none" xmlns="http://www.w3.org/2000/svg">
<path d="M23.01 12.8788C23.01 18.8384 18.0455 23.7028 11.88 23.7028C5.71451 23.7028 0.75 18.8384 0.75 12.8788C0.75 6.91912 5.71451 2.05469 11.88 2.05469C18.0455 2.05469 23.01 6.91912 23.01 12.8788Z" fill="white" stroke="#999999" stroke-width="1.5"/>
<path d="M12.2068 16.304C12.5481 16.304 12.8361 16.4213 13.0708 16.656C13.3054 16.8907 13.4228 17.1787 13.4228 17.52C13.4228 17.8613 13.3054 18.1493 13.0708 18.384C12.8361 18.6187 12.5481 18.736 12.2068 18.736C11.8654 18.736 11.5774 18.6187 11.3428 18.384C11.1081 18.1493 10.9908 17.8613 10.9908 17.52C10.9908 17.1787 11.1081 16.8907 11.3428 16.656C11.5774 16.4213 11.8654 16.304 12.2068 16.304ZM12.2068 6.064C12.5481 6.064 12.8201 6.13867 13.0228 6.288C13.2361 6.43733 13.3374 6.688 13.3268 7.04L13.0708 14.352C13.0601 14.6827 12.9641 14.912 12.7828 15.04C12.6121 15.168 12.4201 15.232 12.2068 15.232C11.9934 15.232 11.7961 15.168 11.6148 15.04C11.4441 14.912 11.3534 14.6827 11.3428 14.352L11.0868 7.04C11.0761 6.688 11.1721 6.43733 11.3748 6.288C11.5881 6.13867 11.8654 6.064 12.2068 6.064Z" fill="#999999"/>
</svg>
