<svg width="40" height="40" viewBox="0 0 40 40" fill="none" xmlns="http://www.w3.org/2000/svg">
<rect x="1" y="1" width="38" height="38" rx="5" fill="white"/>
<rect x="1" y="1" width="38" height="38" rx="5" stroke="#E5E5EC" stroke-width="2"/>
<rect x="7" y="10" width="26" height="22" rx="2" stroke="#505050" stroke-width="3"/>
<path d="M14 7V12" stroke="#505050" stroke-width="3" stroke-linecap="round"/>
<path d="M26 7V12" stroke="#505050" stroke-width="3" stroke-linecap="round"/>
<path d="M20.5006 26.9997C19.8738 26.9997 19.3642 26.4946 19.3586 25.8679V25.8679C19.3557 25.5482 19.4869 25.2419 19.7205 25.0235L23.1836 21.7846C24.1778 20.818 24.7154 20.2185 24.7154 19.3568C24.7154 18.3903 24.0011 17.7908 23.0216 17.7983C22.4044 17.7937 21.9186 18.0366 21.6384 18.4675C21.3203 18.9566 20.8967 19.4767 20.3132 19.4767V19.4767C19.7341 19.4767 19.2444 18.9987 19.399 18.4405C19.8188 16.9246 21.1964 16 23.0511 16C25.3341 16 26.8512 17.3263 26.8512 19.207C26.8512 20.4433 26.262 21.4549 24.0674 23.478L22.4597 25.069C22.4517 25.077 22.4472 25.0878 22.4472 25.0991V25.0991C22.4472 25.1225 22.4661 25.1414 22.4894 25.1414H26.0693C26.5825 25.1414 26.9985 25.5574 26.9985 26.0705V26.0705C26.9985 26.5837 26.5825 26.9997 26.0693 26.9997H20.5006Z" fill="#505050"/>
<path d="M16.1138 16.1504C17.0053 16.1504 17.7281 16.8731 17.7281 17.7647V25.8881C17.7281 26.5023 17.2302 27.0002 16.616 27.0002V27.0002C16.0018 27.0002 15.504 26.5023 15.504 25.8881V18.339C15.504 18.3138 15.4835 18.2934 15.4583 18.2934V18.2934C15.4497 18.2934 15.4412 18.2959 15.4338 18.3005L14.2947 19.0266C13.7341 19.384 13 18.9813 13 18.3165V18.3165C13 18.0311 13.1446 17.7651 13.3842 17.6099L15.236 16.4099C15.4974 16.2405 15.8023 16.1504 16.1138 16.1504V16.1504Z" fill="#505050"/>
</svg>
