<svg width="40" height="40" viewBox="0 0 40 40" fill="none" xmlns="http://www.w3.org/2000/svg">
<path d="M20 37C10.6112 37 3 29.3888 3 20C3 10.6112 10.6112 3 20 3C29.3888 3 37 10.6112 37 20C37 29.3888 29.3888 37 20 37Z" fill="#333333"/>
<path d="M25.0997 25.1001V14.9001H14.8997" fill="#333333"/>
<path d="M25.0997 25.1001V14.9001M25.0997 14.9001H14.8997M25.0997 14.9001L14.8997 25.0999M3 20C3 29.3888 10.6112 37 20 37C29.3888 37 37 29.3888 37 20C37 10.6112 29.3888 3 20 3C10.6112 3 3 10.6112 3 20Z" stroke="white" stroke-width="2" stroke-linecap="round" stroke-linejoin="round"/>
</svg>
