<svg width="21" height="20" viewBox="0 0 21 20" fill="none" xmlns="http://www.w3.org/2000/svg">
<g clip-path="url(#clip0_36_94)">
<path d="M9.85 5.88754L10.7625 6.75004C10.8375 6.82504 10.9375 6.85004 11.0375 6.82504L12.2625 6.56254C12.5125 6.51254 12.725 6.76254 12.6125 7.00004L12.075 8.13754C12.0375 8.22504 12.0375 8.33754 12.0875 8.42504L12.725 9.51254C12.85 9.73754 12.675 10.0125 12.4125 9.97504L11.1625 9.81254C11.0625 9.80004 10.9625 9.83754 10.8875 9.91254L10.05 10.85C9.875 11.0375 9.5625 10.95 9.5125 10.7L9.275 9.46254C9.25 9.36254 9.1875 9.27504 9.1 9.23754L7.95 8.72504C7.7125 8.62504 7.7 8.28754 7.925 8.16254L9.025 7.56254C9.1125 7.51254 9.175 7.42504 9.1875 7.32504L9.3125 6.07504C9.3375 5.81254 9.65 5.70004 9.8375 5.87504L9.85 5.88754Z" fill="#191919"/>
<path d="M15.5625 5.07511L15.6375 5.82511C15.6375 5.82511 15.675 5.93761 15.7375 5.97511L16.4 6.33761C16.5375 6.41261 16.525 6.61261 16.3875 6.67511L15.7 6.98761C15.7 6.98761 15.6 7.06261 15.5875 7.12511L15.45 7.87511C15.425 8.02511 15.225 8.08761 15.125 7.96261L14.625 7.40011C14.625 7.40011 14.525 7.33761 14.4625 7.33761L13.7125 7.43761C13.5625 7.46261 13.45 7.28761 13.525 7.16261L13.9 6.51261C13.9 6.51261 13.9375 6.38761 13.9 6.33761L13.575 5.65011C13.5125 5.51261 13.625 5.35011 13.7875 5.38761L14.525 5.53761C14.525 5.53761 14.65 5.53761 14.6875 5.48761L15.2375 4.96261C15.35 4.85011 15.5375 4.92511 15.55 5.07511H15.5625Z" fill="#191919"/>
<path d="M11.9625 2.63743L12.025 3.24993C12.025 3.24993 12.0625 3.34993 12.1 3.36243L12.6375 3.64993C12.75 3.71243 12.7375 3.87493 12.6375 3.92493L12.075 4.17493C12.075 4.17493 12 4.23743 11.9875 4.28743L11.875 4.88743C11.85 5.01243 11.7 5.04993 11.6125 4.96243L11.2 4.51243C11.2 4.51243 11.1125 4.46243 11.0625 4.46243L10.45 4.53743C10.325 4.54993 10.2375 4.42493 10.3 4.31243L10.6 3.77493C10.6 3.77493 10.625 3.67493 10.6 3.63743L10.3375 3.08743C10.2875 2.97493 10.3875 2.84993 10.5 2.87493L11.1 2.99993C11.1 2.99993 11.2 2.99993 11.2375 2.96243L11.6875 2.53743C11.775 2.44993 11.925 2.49993 11.9375 2.63743H11.9625Z" fill="#191919"/>
<path d="M6.3375 3.82498L6.825 4.39998C6.825 4.39998 6.925 4.47498 6.9875 4.46248L7.7375 4.38748C7.8875 4.37498 8 4.53748 7.9125 4.67498L7.5125 5.32498C7.5125 5.32498 7.475 5.43748 7.5125 5.49998L7.8125 6.18748C7.875 6.32498 7.75 6.48748 7.6 6.44998L6.8625 6.27498C6.8625 6.27498 6.7375 6.27498 6.6875 6.31248L6.125 6.81248C6.0125 6.91248 5.825 6.83748 5.8125 6.68748L5.75 5.93748C5.75 5.93748 5.7125 5.82498 5.6625 5.78748L5.0125 5.41248C4.875 5.33748 4.8875 5.13748 5.0375 5.07498L5.7375 4.78748C5.7375 4.78748 5.8375 4.71248 5.85 4.64998L6.0125 3.91248C6.05 3.76248 6.2375 3.71248 6.3375 3.82498Z" fill="#191919"/>
<path d="M15.5 12H5.5L7.5 9.25H7.875L8.825 9.675L9.0375 10.8125C9.1125 11.2 9.45 11.475 9.8375 11.475C10.0625 11.475 10.2875 11.375 10.4375 11.2L11.2 10.3375L12.35 10.4875C12.35 10.4875 12.425 10.4875 12.45 10.4875C12.7375 10.4875 13 10.325 13.15 10.075C13.3 9.825 13.3 9.5125 13.15 9.2625H13.4875L15.4875 12.0125L15.5 12Z" fill="#191919"/>
<path d="M7.05 9.025L5.05 11.775L3 10.75L6 8.5L7.05 9.025Z" fill="#191919"/>
<path d="M15.5 12.5L14.5 17.5H6.5L5.5 12.5H15.5Z" fill="#191919"/>
<path d="M18 10.75L15.95 11.775L13.95 9.025L15 8.5L18 10.75Z" fill="#191919"/>
</g>
<defs>
<clipPath id="clip0_36_94">
<rect width="15" height="15" fill="white" transform="translate(3 2.5)"/>
</clipPath>
</defs>
</svg>
