<svg width="18" height="18" viewBox="0 0 18 18" fill="none" xmlns="http://www.w3.org/2000/svg">
<path d="M0.666504 1.9165C0.666504 1.22615 1.22615 0.666504 1.9165 0.666504H16.0832C16.7735 0.666504 17.3332 1.22615 17.3332 1.9165C17.3332 2.60686 16.7735 3.1665 16.0832 3.1665H1.9165C1.22615 3.1665 0.666504 2.60686 0.666504 1.9165Z" fill="#D0DDD9"/>
<path fill-rule="evenodd" clip-rule="evenodd" d="M1.5 4.4165H16.5V12.3332C16.5 13.2536 15.7538 13.9998 14.8333 13.9998H9.625V17.3332C9.625 17.6783 9.34518 17.9582 9 17.9582C8.65482 17.9582 8.375 17.6783 8.375 17.3332V13.9998H3.16667C2.24619 13.9998 1.5 13.2536 1.5 12.3332V4.4165ZM12.6549 6.79733C12.9509 6.97492 13.0469 7.35884 12.8693 7.65483L11.9674 9.15795C11.2112 10.4183 9.4301 10.5381 8.51195 9.39037C8.13796 8.92288 7.41248 8.97168 7.10447 9.48503L6.20259 10.9882C6.025 11.2841 5.64109 11.3801 5.3451 11.2025C5.04911 11.0249 4.95313 10.641 5.13073 10.345L6.0326 8.84192C6.78879 7.5816 8.56988 7.4618 9.48804 8.6095C9.86202 9.07698 10.5875 9.02818 10.8955 8.51483L11.7974 7.01171C11.975 6.71572 12.3589 6.61974 12.6549 6.79733Z" fill="#6A7471"/>
</svg>
