<svg width="508" height="540" viewBox="0 0 508 540" fill="none" xmlns="http://www.w3.org/2000/svg">
<path d="M497.192 108C503.16 108 508 103.169 508 97.2V10.8C508 4.83084 503.16 0 497.192 0H10.8085C4.83994 0 0 4.83084 0 10.8V97.2C0 103.169 4.83994 108 10.8085 108H86.4681V345.6C86.4681 363.466 101.013 378 118.894 378H264.341L275.95 435.341C279.289 454.469 286.885 472.603 298.18 488.402L335.064 540H508V367.073C508 341.201 500.25 315.922 485.748 294.487L421.532 199.574V108H497.192ZM453.957 43.2V64.8H421.532V43.2H453.957ZM54.0426 64.8V43.2H86.4681V64.8H54.0426ZM118.894 356.4C112.935 356.4 108.085 351.559 108.085 345.6V43.2H302.638V190.059C316.363 197.038 327.164 209.252 332.166 224.638L345.872 260.726V43.2H399.915V345.6C399.915 351.559 395.065 356.4 389.106 356.4H359.088L311.603 231.309C305.961 213.957 288.096 202.11 268.159 205.913C253.306 208.747 241.195 220.942 238.453 235.802C237.514 240.886 237.595 245.834 238.526 250.474L259.969 356.4H118.894Z" fill="#444444"/>
</svg>
