<svg width="100" height="100" viewBox="0 0 100 100" fill="none" xmlns="http://www.w3.org/2000/svg">
<path d="M2.31171 61.374L3.20239 61.4874L3.74759 62.4255L3.14436 63.2489L2.85691 64.1297L3.37377 64.7262L4.35082 65.0665L6.18885 64.47L7.33863 65.2933L7.39531 65.9472L8.22796 66.5998L9.06196 66.6292L10.151 67.3791L8.88922 68.3893L8.37236 69.3275L9.06196 71.0316L8.88922 72.4795L7.33863 73.4163L6.38993 74.524H7.59639L7.85549 76.144L8.54509 77.4211L9.40608 80.9148L10.0093 82.2786L12.595 81.4259L16.7299 81.3405L25.4329 79.7218L30.2587 78.8704L32.9294 78.785L38.4448 79.6364L42.8726 78.8957L52.4311 76.2775L59.5215 74.1023L62.4378 75.3447L68.1826 74.8562V69.1326L76.5739 66.3369L80.119 64.1177L80.6575 63.0527L82.0043 61.8103L82.7222 62.8753L83.6642 62.5203L84.8612 61.8103L85.7586 62.5203L86.8355 60.9816L90.3659 57.4319L91.2646 55.4195L91.8031 52.7572L94.4346 50.5086L93.6573 49.3249H92.521L92.162 48.615L96.7085 45.0052L96.6492 43.4078L98.1444 42.6392L99.0432 41.5742H98.0851L97.9056 40.568L99.4022 39.5031L100 37.1357L99.641 34.7697L96.4103 33.9997L94.8543 31.9299L92.4009 28.9113L90.965 27.1952H90.1864L88.5116 26.3077L88.571 24.7704L89.5157 23.2905L88.0326 22.1668L87.4941 20.9244V19.9182L87.1 17.7217L81.1514 20.0397L77.6751 20.4374L75.7115 21.234L74.6535 23.077L72.6387 25.6178L69.8682 26.4145L63.1179 27.4114L61.153 28.3081L57.4257 28.5563L56.3677 30.3005L55.5121 32.7907L57.678 32.3423L59.2394 33.3885L58.2313 37.3239L56.67 39.7153L54.2516 41.1098H52.0857L49.8198 40.0636L46.8982 38.3208L44.631 39.814L41.7592 41.4088L37.9307 41.7077L36.7215 41.5088L31.8862 43.0021L26.0428 43.3011V45.9914H24.0779L23.7757 43.4505L0 44.9945V53.1148L1.61131 54.0116L1.25909 55.5556L1.7773 55.9039L1.28878 62.4816L2.31171 61.374Z" fill="#0B8544"/>
</svg>
