<svg width="100" height="100" viewBox="0 0 100 100" fill="none" xmlns="http://www.w3.org/2000/svg">
<path d="M99.9776 54.754L100 54.5748L98.381 54.8902L94.8985 53.759L93.3793 51.4331L92.1122 52.5006L91.0373 52.1867L88.8205 53.004L87.3655 52.5006V49.7971L86.225 48.352L85.4662 45.9002L84.199 45.3273L82.2997 44.6418L81.8569 46.0883L80.6539 46.9692V48.8539L80.2111 50.7402H77.1087V49.3573L76.2858 49.7971L74.3239 49.0435L72.9703 49.7971L70.8414 48.8539L70.5254 47.4089L71.9178 46.528V45.0193L70.0811 44.1399H67.9925L66.7894 42.4417L66.3466 39.6123L66.7894 37.3485L65.4223 35.3365L66.2199 34.3933L65.4223 32.5708L64.0672 32.0052L63.1176 30.4328L63.8138 29.5534V28.1069L62.6748 27.5413L62.4214 25.5292H61.4717L60.3327 22.2587L60.9022 21.1275V19.8069H59.5724V17.7948L58.9388 15.7842L57.2304 13.7084L56.3434 13.2051L55.7739 12.5136L56.2166 11.5705L56.9769 8.48948L57.0396 6.72909L56.4075 5.78598L56.5968 4.7185L57.5464 4.40314V2.58057L55.5204 0.694336H54.5082L53.3051 1.5738L51.5951 1.51161L50.0134 1.85805L49.5692 4.52899L48.8729 6.28937L48.05 7.422L46.7217 7.61004L46.024 8.93068L42.2896 9.18239L41.0269 9.37042L39.9475 10.9428L37.9841 12.5136L37.4146 11.3825L37.7948 9.81014L37.4146 8.04976L36.2116 7.61004L36.149 6.66692L35.0726 6.28937H32.7306L32.0329 7.422V8.55315L31.2099 9.43259L29.6282 10.5652L30.8313 12.9548L31.7168 15.8464L30.2603 16.6015L29.6282 17.4187H27.9823L26.4632 15.5947L25.3228 17.1034L25.7029 18.9274L25.5762 19.8069L26.5258 22.0085L26.6526 25.2139L26.2098 27.0379L27.9182 29.7414L28.9946 30.8726L28.6144 32.0674L29.6282 32.5708L30.0084 33.7656L29.5641 35.3365L28.6786 36.2796L27.5381 36.0279L26.906 37.2227H25.7655L25.6388 35.4623L24.2464 33.2622L22.4112 31.9415L21.6569 32.4449L19.689 32.3812L19.2448 31.5018L17.2188 31.4381L15.8264 33.4502L16.4599 34.2675L16.0798 35.1484L15.2569 36.4054L13.9912 36.7208L13.4217 37.538V38.3553H11.8385L9.87507 39.6745V41.8761V43.3848L10.9514 47.6606L9.87507 49.2315L7.85057 52.5006L7.59712 53.4437L8.16662 54.8902L7.27958 56.1487L5.3803 60.6747L3.60773 63.5662L4.24132 65.2023L4.11461 67.0885L5.06425 68.2197L3.60773 69.7283H2.15271L0.442764 70.1059L0.822925 71.6782L0 72.4318V74.2559L0.632098 75.1353L0 77.713L2.91154 80.4801L3.86118 81.9888L4.7482 82.4286L4.43066 83.5612L5.44441 84.4406L5.82455 86.201V87.3337L8.80021 88.5907L11.8385 87.1441L12.0278 88.1509L11.5224 91.608L12.2186 93.8718L12.9148 94.8149L13.213 96.8877L16.4003 97.6946L17.5587 97.8664L18.4874 99.3055L19.935 98.6155L19.9931 97.1187L18.0804 95.1036L17.0384 94.9881L17.6168 93.0323L17.2113 92.1114L18.1967 90.7286L17.3857 89.5204L19.5295 86.469L21.2693 85.7791L21.6748 85.0876L26.1367 83.8218L27.471 84.0527L28.1657 82.4404L30.0203 83.0741L30.6583 81.749L30.1947 80.7141L31.1801 79.9649L32.9765 80.5986L34.0782 82.2672L36.0491 82.5559L37.2074 81.98L38.1928 80.4254L39.1201 81.1745L41.4383 82.4404L42.0182 81.1745L43.1199 80.7718L46.3654 83.4768L48.3944 84.8582L51.9872 85.7213L53.0889 87.6786L53.0308 89.0023L52.3346 89.8077L52.6253 91.9959L51.5817 93.435L51.9291 95.1036L53.0889 96.3695L56.1018 96.7737H57.1454L58.8837 98.6155L60.3909 97.2342L60.8545 95.3923L62.1307 94.8164L64.1 95.3923L65.2598 94.8741L66.2453 92.6281L67.578 92.4564L69.3163 90.6146L71.229 90.4413L72.2144 91.4777L73.4324 92.7436L75.287 92.2254L78.1269 93.0323L78.8217 94.0672L80.4452 93.8955L83.227 95.2191L84.5598 96.2555L85.8359 95.7373L87.1687 96.716L88.0959 93.6068L89.8924 93.3773V91.0173L91.574 90.1541L92.2687 87.6786L91.5158 84.6272L92.7905 83.8218L93.1378 82.0377L94.007 78.9863L93.196 75.7631L95.2831 73.9213L94.8776 71.9062L95.6886 68.8563L94.9924 66.4385L95.3412 65.2304L96.6159 64.9417V63.3871L97.7757 62.6972L99.0504 59.9922L98.1812 58.4953L98.5286 57.3435L99.9776 54.754Z" fill="#0DA052"/>
</svg>
