<svg width="20" height="20" viewBox="0 0 20 20" fill="none" xmlns="http://www.w3.org/2000/svg">
<path d="M1.6665 2.9165C1.6665 2.22615 2.22615 1.6665 2.9165 1.6665H17.0832C17.7735 1.6665 18.3332 2.22615 18.3332 2.9165C18.3332 3.60686 17.7735 4.1665 17.0832 4.1665H2.9165C2.22615 4.1665 1.6665 3.60686 1.6665 2.9165Z" fill="#B2D6CB"/>
<path fill-rule="evenodd" clip-rule="evenodd" d="M2.5 5.4165H17.5V13.3332C17.5 14.2536 16.7538 14.9998 15.8333 14.9998H10.625V18.3332C10.625 18.6783 10.3452 18.9582 10 18.9582C9.65482 18.9582 9.375 18.6783 9.375 18.3332V14.9998H4.16667C3.24619 14.9998 2.5 14.2536 2.5 13.3332V5.4165ZM13.6549 7.79733C13.9509 7.97492 14.0469 8.35884 13.8693 8.65483L12.9674 10.1579C12.2112 11.4183 10.4301 11.5381 9.51195 10.3904C9.13796 9.92288 8.41248 9.97168 8.10447 10.485L7.20259 11.9882C7.025 12.2841 6.64109 12.3801 6.3451 12.2025C6.04911 12.0249 5.95313 11.641 6.13073 11.345L7.0326 9.84192C7.78879 8.5816 9.56988 8.4618 10.488 9.6095C10.862 10.077 11.5875 10.0282 11.8955 9.51483L12.7974 8.01171C12.975 7.71572 13.3589 7.61974 13.6549 7.79733Z" fill="#0DA052"/>
</svg>
