<svg width="20" height="20" viewBox="0 0 20 20" fill="none" xmlns="http://www.w3.org/2000/svg">
<path d="M10.5165 2.26635C10.7806 2.37243 10.9565 2.65095 10.9565 2.96295V5.46484H13.3333C13.5901 5.46484 13.8241 5.62869 13.9348 5.88606C14.0456 6.14347 14.0134 6.44865 13.8522 6.67069L9.2145 13.0577C9.03706 13.3021 8.7402 13.3956 8.4737 13.2911C8.2072 13.1865 8.029 12.9066 8.029 12.5926V8.54306H6.66666C6.4081 8.54306 6.17283 8.37695 6.06306 8.1168C5.9533 7.85669 5.9888 7.54947 6.15416 7.32861L9.77733 2.48924C9.95693 2.24939 10.2525 2.16024 10.5165 2.26635Z" fill="#6A7471"/>
<path fill-rule="evenodd" clip-rule="evenodd" d="M18 0C19.1046 0 20 0.994922 20 2.22222V13.3333C20 14.5606 19.1046 15.5556 18 15.5556H12.4536L12.4763 15.7067C12.5856 16.4351 12.7922 17.1412 13.0894 17.8016L13.412 18.5185H14.3333C14.7015 18.5185 15 18.8501 15 19.2593C15 19.6684 14.7015 20 14.3333 20H5.66667C5.29847 20 5 19.6684 5 19.2593C5 18.8501 5.29847 18.5185 5.66667 18.5185H6.58797L6.91057 17.8016C7.20777 17.1412 7.41443 16.4351 7.5237 15.7067L7.54637 15.5556H2C0.89543 15.5556 0 14.5606 0 13.3333V2.22222C0 0.994922 0.89543 0 2 0H18ZM1.33333 13.3333C1.33333 13.7424 1.63181 14.0741 2 14.0741H18C18.3682 14.0741 18.6667 13.7424 18.6667 13.3333V2.22222C18.6667 1.81312 18.3682 1.48148 18 1.48148H2C1.63181 1.48148 1.33333 1.81312 1.33333 2.22222V13.3333Z" fill="#D0DDD9"/>
</svg>
