<svg width="20" height="20" viewBox="0 0 20 20" fill="none" xmlns="http://www.w3.org/2000/svg">
<path fill-rule="evenodd" clip-rule="evenodd" d="M19.4469 12.4863L19.75 12.3501L19.8125 12.0124C20.0625 10.6833 20.0625 9.31669 19.8125 7.98765L19.75 7.64992L18.2563 6.97707C17.8969 5.90018 17.3437 4.90299 16.6344 4.03743C16.6344 4.03776 16.8219 2.35008 16.8219 2.35008L16.575 2.12372C15.5969 1.23366 14.4656 0.55004 13.2406 0.111381L12.9281 0L11.625 1.01483C10.55 0.802846 9.45002 0.802846 8.37502 1.01483L7.07188 0L6.75938 0.111381C5.53438 0.55004 4.40312 1.23366 3.42499 2.12372L3.17814 2.35008L3.36564 4.03776C2.65626 4.90299 2.10312 5.89985 1.74374 6.97707L0.250023 7.64992L0.1875 7.98765C-0.0625 9.31669 -0.0625 10.6833 0.1875 12.0124L0.250023 12.3501L1.74374 13.0229C2.10312 14.0998 2.65626 15.097 3.36564 15.9626C3.36564 15.9622 3.17814 17.6499 3.17814 17.6499L3.42499 17.8763C4.40312 18.7663 5.53438 19.45 6.75938 19.8886L7.07188 20L8.37502 18.9852C9.45002 19.1972 10.55 19.1972 11.625 18.9852L12.9281 20L13.2406 19.8886C14.4656 19.45 15.5969 18.7663 16.575 17.8763L16.8219 17.6499L16.6344 15.9622C17.3437 15.097 17.8969 14.1001 18.2563 13.0229L19.4469 12.4863ZM15.625 10C15.625 13.2447 13.1031 15.8793 10 15.8793C6.89688 15.8793 4.375 13.2447 4.375 10C4.375 6.75529 6.89688 4.12072 10 4.12072C13.1031 4.12072 15.625 6.75529 15.625 10Z" fill="#D0DDD9"/>
<path fill-rule="evenodd" clip-rule="evenodd" d="M10 4.12072C6.89688 4.12072 4.375 6.75529 4.375 10C4.375 13.2447 6.89688 15.8793 10 15.8793V19.1442C9.45625 19.1442 8.91252 19.091 8.37502 18.9852L7.07188 20L6.75938 19.8886C5.53438 19.45 4.40312 18.7663 3.42499 17.8763L3.17814 17.6499L3.36564 15.9626C2.65626 15.097 2.10312 14.0998 1.74374 13.0229L0.250023 12.3501L0.1875 12.0124C-0.0625 10.6833 -0.0625 9.31669 0.1875 7.98765L0.250023 7.64992L1.74374 6.97707C2.10312 5.89985 2.65626 4.90299 3.36564 4.03776L3.17814 2.35008L3.42499 2.12372C4.40312 1.23366 5.53438 0.55004 6.75938 0.111381L7.07188 0L8.37502 1.01483C8.91252 0.909 9.45625 0.85576 10 0.85576V4.12072Z" fill="#6A7471"/>
<path fill-rule="evenodd" clip-rule="evenodd" d="M11.875 7.06055H13.125V12.9398H11.875V7.06055Z" fill="#6A7471"/>
<path fill-rule="evenodd" clip-rule="evenodd" d="M8.125 11.6333H9.375V12.9398H10.625V8.69365C10.625 8.17398 10.4281 7.67555 10.075 7.30777C9.72499 6.94031 9.24687 6.73389 8.75 6.73389C8.25312 6.73389 7.775 6.94031 7.425 7.30777C7.07188 7.67555 6.875 8.17398 6.875 8.69365V12.9398H8.125V11.6333ZM9.375 10.3268V8.69365C9.375 8.52053 9.30938 8.35428 9.19063 8.2318C9.07501 8.10931 8.91562 8.04039 8.75 8.04039C8.58437 8.04039 8.42499 8.10931 8.30936 8.2318C8.19061 8.35428 8.125 8.52053 8.125 8.69365V10.3268H9.375Z" fill="#6A7471"/>
</svg>
