<svg width="80" height="74" viewBox="0 0 80 74" fill="none" xmlns="http://www.w3.org/2000/svg">
<path d="M8.41526 58.7901L7.99337 60.2193L8.92338 61.3965V63.0778L8.41526 64.086L9.34527 65.4321V67.5331L7.90846 69.0745L9.34527 70.2226L11.6272 71.3153L12.6408 70.8957L13.4859 71.9039L16.1061 73.25V70.055L15.5144 69.0745L16.1061 68.2061L15.5993 66.7769L17.2046 66.3559L19.2332 65.4321L21.1768 65.5997L22.7821 66.9445L24.5572 66.1039L28.191 66.4404L28.8663 64.7696L30.3032 63.5542L28.9512 60.5559L28.6978 58.5381L30.3032 57.5298L30.8949 55.8485V54.3348L33.3453 53.4942L35.6272 53.7463L36.5572 54.5037L37.994 53.6631V51.6453L38.924 51.1412L42.8949 53.7463L43.9934 55.8485L47.9655 56.185L48.5572 58.8746L49.6371 59.7152L51.1774 59.2111L53.6279 60.2193V61.1022H55.2332L54.8962 63.5542L54.7264 67.1134L55.732 68.6258L57.7685 69.803L60.0504 69.0745H61.8255L62.924 69.4664L63.4308 68.5413L62.5008 66.7769V64.7696H65.206L67.8249 65.5153V63.5542V59.9673L66.2196 59.8828L65.2909 57.2777L62.2474 53.9996L64.0226 53.4942L66.2196 51.6453L66.8391 49.7119L69.5151 47.256V44.1772L71.2053 43.743L71.8819 46.6859L73.2338 47.256L74.7595 46.0973H76.1075L77.0375 44.8568L74.4172 43.743L74.2487 41.8941L72.9804 41.4731L71.9668 39.3722L73.9104 37.6077L74.7595 36.4306L73.4872 35.673L74.4172 33.4032L73.6571 31.7958L74.0789 30.3494L73.9104 28.0241L74.7595 27.1835H77.5456L79.6564 25.2264V23.904L78.8113 22.7282L79.6564 21.3834L79.2345 19.7853L79.6564 18.0208L80 15.3722H78.8139L77.937 13.7305L74.8418 12.2432L71.6962 12.5507V10.8061L68.394 8.44645L67.0541 6.65035L66.2289 3.77738L64.475 3.67444L63.0819 2.34023L61.2763 1.98127L59.7294 0.75L58.3363 2.95653V4.44382L59.1098 5.52201L58.8007 6.49727L54.7781 5.47054L54.3138 6.85622L55.139 8.70247L55.4481 11.8328L55.2929 13.2185L51.7864 11.9872L49.8773 12.1403L48.1751 11.0119L45.9582 11.3194L44.41 10.7546L43.0687 8.65101L41.3161 8.75394L41.7791 9.93375L38.3748 11.1149L37.6531 14.0393L35.1774 14.8602V16.3475L33.5788 15.8856L33.7844 14.3983L31.2053 12.0888L29.6066 11.9872L28.9884 15.4751V16.9123L27.4401 18.9644V21.6328L25.2232 24.5058V26.0446L28.3688 28.5071L29.2458 29.8928L31.257 31.5345L31.9284 33.0218L31.4123 34.3045H28.2149L26.2023 33.3306L25.2232 31.7404L24.0358 31.7905L22.4371 29.5853L21.2511 30.2517L20.3741 32.4583L18.8099 32.0993L17.1768 31.9449L15.3194 29.6869L13.8242 28.0452L12.7403 29.1234L12.276 31.1755L11.5542 31.5345V33.997L10.3682 33.5866L8.20166 35.0238L9.02687 36.5111L8.4073 37.8453L6.34428 36.8185L3.04345 37.1788L0.723051 38.3072L0 39.7219L1.65041 40.0518L3.81692 39.384L5.98342 40.5137L6.75688 42.3085L8.76949 41.8624L9.02687 44.5665L10.1612 45.0284L9.64511 48.9795L8.30514 52.4675L7.73731 52.8779L8.51078 55.4737L7.27297 55.8538L8.41526 57.2777V58.7901Z" fill="#BBBBBB"/>
</svg>
