<svg width="67" height="13" viewBox="0 0 67 13" fill="none" xmlns="http://www.w3.org/2000/svg">
<g opacity="0.1">
<rect width="4" height="4" transform="matrix(0 1 1 0 0.580078 4.69629)" fill="#FFC42E"/>
</g>
<g opacity="0.1">
<rect width="4" height="4" transform="matrix(0 1 1 0 6.58008 4.69629)" fill="#FFC42E"/>
</g>
<g opacity="0.2">
<rect width="4" height="4" transform="matrix(0 1 1 0 12.5801 4.69629)" fill="#FFC42E"/>
</g>
<g opacity="0.3">
<rect width="4" height="4" transform="matrix(0 1 1 0 18.5801 4.69629)" fill="#FFC42E"/>
</g>
<g opacity="0.4">
<rect width="4" height="4" transform="matrix(0 1 1 0 24.5801 4.69629)" fill="#FFC42E"/>
</g>
<g opacity="0.5">
<rect width="4" height="4" transform="matrix(0 1 1 0 30.5801 4.69629)" fill="#FFC42E"/>
</g>
<g opacity="0.6">
<rect width="4" height="4" transform="matrix(0 1 1 0 36.5801 4.69629)" fill="#FFC42E"/>
</g>
<g opacity="0.7">
<rect width="4" height="4" transform="matrix(0 1 1 0 42.5801 4.69629)" fill="#FFC42E"/>
</g>
<g opacity="0.8">
<rect width="4" height="4" transform="matrix(0 1 1 0 48.5801 4.69629)" fill="#FFC42E"/>
</g>
<rect width="4" height="4" transform="matrix(0 1 1 0 54.5801 4.69629)" fill="#FFC42E"/>
<path d="M66.5801 6.69629L58.5801 0.69629L58.5801 12.6963L66.5801 6.69629Z" fill="#FFC42E"/>
</svg>
