<svg width="48" height="48" viewBox="0 0 48 48" fill="none" xmlns="http://www.w3.org/2000/svg">
<g clip-path="url(#clip0_188_581)">
<path d="M47.0423 26.2759H31.9583V5.57068H36.461V8.06502H36.0322C34.4777 8.06502 33.2162 9.33363 33.2162 10.8953V16.3271C33.2162 17.8887 34.4777 19.1573 36.0322 19.1573H38.8338C40.3847 19.1573 41.6498 17.8887 41.6498 16.3271V10.8953C41.6498 9.33363 40.3847 8.06502 38.8338 8.06502H38.3764V4.60582C38.3764 4.07336 37.9476 3.64453 37.4187 3.64453H24.5825C24.0536 3.64453 23.6248 4.07693 23.6248 4.60582V8.06502H23.1709C21.6164 8.06502 20.355 9.33363 20.355 10.8953V16.3271C20.355 17.8887 21.6164 19.1573 23.1709 19.1573H25.9726C27.5235 19.1573 28.7886 17.8887 28.7886 16.3271V10.8953C28.7886 9.33363 27.5235 8.06502 25.9726 8.06502H25.5438V5.57068H30.0465V26.2794H19.1971C19.4759 25.7648 19.6331 25.1716 19.6331 24.5427C19.6331 22.5236 17.9964 20.8834 15.9881 20.8834H10.4205C9.79512 20.8834 9.20548 21.0406 8.69446 21.3229V13.9614C8.69446 13.4289 8.26563 13.0001 7.73675 13.0001H0.957713C0.428827 13.0001 0 13.4325 0 13.9614V43.3968C0 43.9292 0.428827 44.358 0.957713 44.358H7.7296C8.25849 44.358 8.68731 43.9256 8.68731 43.3968V39.1943H30.0429V42.4319H27.2698C26.7409 42.4319 26.3121 42.8643 26.3121 43.3932C26.3121 43.9221 26.7409 44.3545 27.2698 44.3545H34.7314C35.2603 44.3545 35.6891 43.9221 35.6891 43.3932C35.6891 42.8643 35.2603 42.4319 34.7314 42.4319H31.9583V39.1943H39.3163V43.3968C39.3163 43.9292 39.7451 44.358 40.274 44.358H47.0423C47.5712 44.358 48 43.9256 48 43.3968V27.2443C48 26.7118 47.5712 26.283 47.0423 26.283V26.2759ZM38.8303 9.98759C39.327 9.98759 39.7308 10.395 39.7308 10.8917V16.3235C39.7308 16.8238 39.327 17.2276 38.8303 17.2276H36.0286C35.5319 17.2276 35.1281 16.8202 35.1281 16.3235V10.8917C35.1281 10.3914 35.5319 9.98759 36.0286 9.98759H38.8303ZM25.969 9.98759C26.4657 9.98759 26.8696 10.395 26.8696 10.8917V16.3235C26.8696 16.8238 26.4657 17.2276 25.969 17.2276H23.1674C22.6706 17.2276 22.2668 16.8202 22.2668 16.3235V10.8917C22.2668 10.3914 22.6706 9.98759 23.1674 9.98759H25.969ZM6.77189 42.4283H1.91543V14.9191H6.76831V42.4319L6.77189 42.4283ZM10.4133 22.8059H15.9809C16.9351 22.8059 17.707 23.585 17.707 24.5427C17.707 25.5004 16.9315 26.2794 15.9809 26.2794H10.4133C9.4592 26.2794 8.68731 25.5004 8.68731 24.5427C8.68731 23.585 9.46277 22.8059 10.4133 22.8059ZM8.68731 28.202H20.4014V33.4301H8.68731V28.202ZM39.3163 37.2645H8.68731V35.3527H39.3163V37.2645ZM39.3163 33.4301H22.3169V28.202H39.3163V33.4301ZM46.0846 42.4283H41.2317V28.1984H46.0846V42.4283Z" fill="white"/>
</g>
<defs>
<clipPath id="clip0_188_581">
<rect width="48" height="40.7099" fill="white" transform="translate(0 3.64453)"/>
</clipPath>
</defs>
</svg>
