<svg width="48" height="48" viewBox="0 0 48 48" fill="none" xmlns="http://www.w3.org/2000/svg">
<g clip-path="url(#clip0_188_577)">
<path d="M43.7363 17.2837H36.6508V8.88019H38.1764C38.7153 8.88019 39.1522 8.43962 39.1522 7.90075V2.90522C39.1522 2.36271 38.7153 1.92578 38.1764 1.92578H9.81992C9.28104 1.92578 8.84412 2.36635 8.84412 2.90522V7.89711C8.84412 8.43962 9.28104 8.87655 9.81992 8.87655H11.3455V17.2801H4.26367C1.91519 17.2801 0 19.1989 0 21.5583V45.0905C0 45.633 0.436926 46.0699 0.975802 46.0699H47.0242C47.5631 46.0699 48 45.6293 48 45.0905V21.562C48 19.2026 46.0884 17.2837 43.7363 17.2837ZM10.7994 3.88831H37.2043V6.91766H10.7994V3.88831ZM1.9516 21.562C1.9516 20.284 2.9893 19.2426 4.26367 19.2426H11.3492V22.1664H4.24183C3.70295 22.1664 3.26602 22.607 3.26602 23.1458V29.1244C3.26602 29.667 3.70295 30.1039 4.24183 30.1039H11.3455V32.223H4.24183C3.70295 32.223 3.26602 32.6635 3.26602 33.2024V39.181C3.26602 39.7235 3.70295 40.1605 4.24183 40.1605H11.3455V44.111H1.9516V21.5583V21.562ZM11.3492 28.145H5.21763V24.1289H11.3455V28.145H11.3492ZM11.3492 38.2052H5.21763V34.1892H11.3455V38.2052H11.3492ZM15.9187 29.2373V27.4787H32.0813V29.2373H15.9187ZM30.4319 44.1147H25.1524V31.1998H30.4319V44.1147ZM17.5681 31.1962H23.1971V44.111H17.5681V31.1962ZM32.3835 44.1147V31.1998H33.0571C33.596 31.1998 34.0329 30.7593 34.0329 30.2204V26.4992C34.0329 25.9567 33.596 25.5198 33.0571 25.5198H14.9429C14.404 25.5198 13.9671 25.9604 13.9671 26.4992V30.2204C13.9671 30.7629 14.404 31.1998 14.9429 31.1998H15.6165V44.1147H13.3008V8.88019H34.6992V44.1147H32.3835ZM46.0484 44.1147H36.6508V40.1641H43.7582C44.2971 40.1641 44.734 39.7236 44.734 39.1847V33.2061C44.734 32.6636 44.2971 32.2266 43.7582 32.2266H36.6508V30.1075H43.7582C44.2971 30.1075 44.734 29.667 44.734 29.1281V23.1495C44.734 22.607 44.2971 22.17 43.7582 22.17H36.6508V19.2463H43.7363C45.0107 19.2463 46.0484 20.284 46.0484 21.5656V44.1183V44.1147ZM36.6508 38.2052V34.1892H42.7787V38.2052H36.6508ZM36.6508 28.145V24.1289H42.7787V28.145H36.6508Z" fill="white"/>
<path d="M29.4055 14.8986H26.8313V12.3134C26.8313 11.7709 26.3943 11.334 25.8555 11.334H22.1489C21.61 11.334 21.1731 11.7746 21.1731 12.3134V14.8986H18.5988C18.06 14.8986 17.623 15.3391 17.623 15.878V19.6028C17.623 20.1453 18.06 20.5823 18.5988 20.5823H21.1731V23.1674C21.1731 23.7099 21.61 24.1468 22.1489 24.1468H25.8555C26.3943 24.1468 26.8313 23.7063 26.8313 23.1674V20.5823H29.4055C29.9444 20.5823 30.3813 20.1417 30.3813 19.6028V15.878C30.3813 15.3355 29.9444 14.8986 29.4055 14.8986ZM28.4297 18.6234H25.8555C25.3166 18.6234 24.8797 19.0639 24.8797 19.6028V22.188H23.1247V19.6028C23.1247 19.0603 22.6878 18.6234 22.1489 18.6234H19.5747V16.8611H22.1489C22.6878 16.8611 23.1247 16.4205 23.1247 15.8817V13.2965H24.8797V15.8817C24.8797 16.4242 25.3166 16.8611 25.8555 16.8611H28.4297V18.6234Z" fill="white"/>
</g>
<defs>
<clipPath id="clip0_188_577">
<rect width="48" height="44.1478" fill="white" transform="translate(0 1.92578)"/>
</clipPath>
</defs>
</svg>
