<svg width="48" height="48" viewBox="0 0 48 48" fill="none" xmlns="http://www.w3.org/2000/svg">
<g clip-path="url(#clip0_188_551)">
<path d="M29.6637 47.9995C29.2125 47.9995 28.7517 47.9515 28.3005 47.8651C14.0733 44.9755 3.02368 33.9259 0.134083 19.7083C-0.278717 17.6923 0.239683 15.6187 1.53568 14.0251C2.84128 12.4315 4.76128 11.5195 6.81568 11.5195H8.84128C10.0125 11.5195 11.0589 12.2107 11.5197 13.2859L14.3229 19.8235C14.9757 21.3403 14.8125 23.0683 13.9005 24.4411L12.6429 26.3227C13.2189 27.2635 14.6205 29.4139 16.5981 31.4011C18.5757 33.3787 20.7261 34.7803 21.6765 35.3563L23.5581 34.0987C24.9309 33.1867 26.6589 33.0235 28.1757 33.6763L34.7133 36.4795C35.7885 36.9403 36.4797 37.9867 36.4797 39.1579V41.1835C36.4797 43.2379 35.5677 45.1675 33.9741 46.4635C32.7357 47.4715 31.2189 48.0091 29.6637 48.0091V47.9995ZM6.82528 13.4395C5.34688 13.4395 3.96448 14.0923 3.03328 15.2443C2.09248 16.3867 1.72768 17.8747 2.02528 19.3243C4.76128 32.7835 15.2253 43.2475 28.6845 45.9835C30.1341 46.2811 31.6221 45.9067 32.7645 44.9755C33.9069 44.0443 34.5693 42.6523 34.5693 41.1835V39.1579C34.5693 38.7643 34.3293 38.3995 33.9645 38.2459L27.4269 35.4427C26.5053 35.0491 25.4685 35.1451 24.6333 35.7019L22.2525 37.2859C21.9549 37.4875 21.5709 37.4971 21.2637 37.3339C21.1389 37.2667 18.0861 35.5867 15.2541 32.7643C12.4317 29.9419 10.7517 26.8891 10.6845 26.7547C10.5117 26.4379 10.5309 26.0635 10.7325 25.7659L12.3165 23.3851C12.8733 22.5499 12.9693 21.5131 12.5757 20.5915L9.77248 14.0539C9.61888 13.6891 9.25408 13.4491 8.86048 13.4491H6.83488L6.82528 13.4395Z" fill="white"/>
<path d="M22.0794 30.72C21.9354 30.72 21.7914 30.6912 21.657 30.624C21.3306 30.4608 21.1194 30.1248 21.1194 29.76V23.4432C17.4522 20.9088 15.3594 17.2416 15.3594 13.3056C15.3594 5.9712 22.6842 0 31.6794 0C40.6746 0 47.9994 5.9712 47.9994 13.3056C47.9994 20.64 40.6746 26.6112 31.6794 26.6112C30.5082 26.6112 29.2986 26.496 28.089 26.2752L22.6746 30.5184C22.5018 30.6528 22.2906 30.72 22.0794 30.72ZM31.6794 1.92C23.7402 1.92 17.2794 7.0272 17.2794 13.3056C17.2794 16.7328 19.2186 19.9488 22.5978 22.128C22.8762 22.3008 23.0394 22.608 23.0394 22.9344V27.792L27.2442 24.4896C27.465 24.3168 27.753 24.2496 28.0314 24.3072C29.2602 24.5664 30.489 24.6912 31.6794 24.6912C39.6186 24.6912 46.0794 19.584 46.0794 13.3056C46.0794 7.0272 39.6186 1.92 31.6794 1.92Z" fill="white"/>
<path d="M34.2424 22.079H29.1256C28.5976 22.079 28.1656 21.647 28.1656 21.119V16.9622H24.0088C23.4808 16.9622 23.0488 16.5302 23.0488 16.0022V10.8854C23.0488 10.3574 23.4808 9.92539 24.0088 9.92539H28.1656V5.76859C28.1656 5.24059 28.5976 4.80859 29.1256 4.80859H34.2424C34.7704 4.80859 35.2024 5.24059 35.2024 5.76859V9.92539H39.3592C39.8872 9.92539 40.3192 10.3574 40.3192 10.8854V16.0022C40.3192 16.5302 39.8872 16.9622 39.3592 16.9622H35.2024V21.119C35.2024 21.647 34.7704 22.079 34.2424 22.079ZM30.076 20.159H33.2728V16.0022C33.2728 15.4742 33.7048 15.0422 34.2328 15.0422H38.3896V11.8454H34.2328C33.7048 11.8454 33.2728 11.4134 33.2728 10.8854V6.72859H30.076V10.8854C30.076 11.4134 29.644 11.8454 29.116 11.8454H24.9592V15.0422H29.116C29.644 15.0422 30.076 15.4742 30.076 16.0022V20.159Z" fill="white"/>
</g>
<defs>
<clipPath id="clip0_188_551">
<rect width="48" height="48" fill="white"/>
</clipPath>
</defs>
</svg>
