<svg width="48" height="48" viewBox="0 0 48 48" fill="none" xmlns="http://www.w3.org/2000/svg">
<path d="M1.40779 34.8242C0.855445 34.8242 0.388672 35.2988 0.388672 35.8433C0.388672 36.3879 0.863225 36.8625 1.40779 36.8625H12.7815C13.3338 36.8625 13.8006 36.3957 13.8006 35.8433C13.8006 35.291 13.3338 34.8242 12.7815 34.8242C10.821 34.8242 1.33 34.8242 1.40779 34.8242Z" fill="white"/>
<path d="M1.01888 22.7495H5.95888C6.58902 22.8273 8.15271 23.1385 8.93844 23.7687C9.09403 23.8465 8.3861 23.3797 14.8198 28.1641C14.9754 28.2419 15.131 28.3197 15.3721 28.3975C18.1183 28.6309 22.9027 29.65 23.6884 31.6104C23.7662 31.766 23.844 31.8438 23.9996 31.9994C24.3108 32.2328 25.0965 32.8629 25.8823 33.2519L25.4933 34.8234C25.4933 34.8234 23.1439 34.8234 23.2217 34.8234C22.6693 34.8234 22.2025 35.2979 22.2025 35.8425C22.2025 36.3871 22.6771 36.8616 23.2217 36.8616H26.279C26.7458 36.8616 27.1426 36.5504 27.2203 36.0759L28.0839 32.9407C28.2395 32.3884 27.8505 31.766 27.2981 31.6882C26.987 31.6104 26.1234 31.1359 25.5711 30.5913C23.9218 27.4562 17.5737 26.5926 16.0023 26.437L10.3543 22.205C8.93844 21.1081 6.58902 20.7969 6.35564 20.7969H1.18225C0.629901 20.7969 0.163129 21.2636 0.163129 21.816C0.0075388 22.3683 0.47431 22.7573 1.02666 22.7573L1.01888 22.7495Z" fill="white"/>
<path d="M14.4307 35.8428C14.4307 37.8032 16.0021 39.2969 17.8848 39.2969C19.7674 39.2969 21.3389 37.7254 21.3389 35.8428C21.3389 33.9601 19.7674 32.3887 17.8848 32.3887C16.0021 32.3887 14.4307 33.9601 14.4307 35.8428ZM19.3707 35.8428C19.3707 36.6285 18.7405 37.3365 17.877 37.3365C17.0913 37.3365 16.3833 36.7063 16.3833 35.8428C16.3833 35.057 17.0135 34.3491 17.877 34.3491C18.7405 34.3491 19.3707 35.057 19.3707 35.8428Z" fill="white"/>
<path d="M12.1521 28.9424C12.4633 28.4757 12.3855 27.8455 11.9187 27.5343C8.15339 24.7882 4.3881 23.6134 0.933983 24.0802C0.381636 24.158 -0.00734093 24.6326 0.0704544 25.1771C0.14825 25.7295 0.622801 26.1185 1.16737 26.0407C4.14693 25.6517 7.35988 26.7486 10.7362 29.1758C11.2107 29.5648 11.7553 29.4092 12.1443 28.9424H12.1521Z" fill="white"/>
<path d="M1.01912 31.0578H8.86089C9.41324 31.0578 9.88001 30.591 9.88001 30.0387C9.88001 29.4863 9.41324 29.0195 8.86089 29.0195H1.01912C0.466773 29.0195 0 29.4863 0 30.0387C0 30.591 0.474553 31.0578 1.01912 31.0578Z" fill="white"/>
<path d="M6.97846 14.5115L15.5282 21.0229C15.9949 21.3341 16.6251 21.2563 16.9363 20.8673C17.2474 20.4006 17.1696 19.7704 16.7807 19.4592L10.8215 14.8304L14.8202 15.0638C15.5282 15.0638 15.9949 14.4337 15.8393 13.8113L14.5868 9.73482L17.5664 12.7144C18.041 13.1889 18.8967 13.0256 19.2157 12.481L20.9427 8.8713L22.1174 16.3241C22.1952 16.8764 22.7476 17.2654 23.2921 17.1876C23.8445 17.1098 24.2335 16.5575 24.1557 16.0129L22.5064 5.34717C22.4286 4.8804 22.1174 4.56143 21.6429 4.48364C21.1761 4.40584 20.7794 4.63923 20.6238 5.03599L18.111 10.2872L13.0932 5.50276C12.782 5.19158 12.2296 5.11378 11.8407 5.34717C11.4517 5.58055 11.2883 6.05511 11.3661 6.52188L13.3266 13.0333L7.52302 12.7222C7.04847 12.7222 6.6595 12.9556 6.50391 13.3523C6.50391 13.7413 6.6595 14.2158 6.97068 14.527L6.97846 14.5115Z" fill="white"/>
<path d="M46.9806 41.4922H1.01912C0.466773 41.4922 0 41.959 0 42.5113C0 43.0637 0.474553 43.5304 1.01912 43.5304H46.9806C47.5329 43.5304 47.9997 43.0637 47.9997 42.5113C47.9997 41.959 47.5329 41.4922 46.9806 41.4922Z" fill="white"/>
<path d="M46.9812 32.0788H31.5311V22.5878C31.5311 22.3544 31.6866 22.0354 31.9978 21.8798C32.8614 21.3275 33.4915 20.4717 33.7249 19.5304L36.4711 8.46793H46.9812C47.5335 8.46793 48.0003 7.99337 48.0003 7.44881C48.0003 6.90424 47.5335 6.42969 46.9812 6.42969H35.6853C35.2185 6.42969 34.8218 6.74087 34.744 7.21542L31.92 18.5113L31.5311 18.3557V14.5904C31.5311 13.8825 30.8231 13.4157 30.1152 13.6491L26.5833 15.1428C26.1943 15.2984 25.9531 15.6951 25.9531 16.0841V18.9859C25.9531 19.5382 26.4199 20.005 26.9722 20.005H30.263L30.8153 20.3162C29.9518 20.8685 29.485 21.7243 29.485 22.6656V33.0979C29.485 33.6503 29.9518 34.1171 30.5042 34.1171H46.9734C47.5258 34.1171 47.9925 33.6503 47.9925 33.0979C47.9925 32.5456 47.5258 32.0788 46.9734 32.0788H46.9812ZM29.485 17.9667H27.9914V16.7142L29.485 16.0841V17.9667Z" fill="white"/>
<path d="M30.5045 34.7458C29.9521 34.7458 29.4854 35.2125 29.4854 35.7649V36.0761C29.4854 37.4064 30.5823 38.4255 31.8348 38.4255H34.3476C35.6779 38.4255 36.697 37.3286 36.697 36.0761V35.6871C36.697 35.1347 36.2302 34.668 35.6779 34.668C35.1255 34.668 34.6587 35.1347 34.6587 35.6871V36.0761C34.6587 36.3094 34.5032 36.465 34.2698 36.465H31.757C31.5236 36.465 31.368 36.3094 31.368 36.0761V35.6871C31.5236 35.1347 31.0568 34.7458 30.5045 34.7458Z" fill="white"/>
<path d="M35.9187 23.5274C34.425 23.294 33.0947 24.3909 33.0947 25.9624V26.3514C33.0947 27.6817 34.1916 28.7864 35.5297 28.7864H37.9647C39.295 28.7864 40.3997 27.6895 40.3997 26.3514C40.3997 25.1767 39.5362 24.1575 38.3615 23.9164L35.9265 23.5274H35.9187ZM37.8791 26.8259H35.4441C35.2108 26.8259 34.9774 26.6703 34.9774 26.3592V25.9702C34.9774 25.7368 35.2108 25.4956 35.3663 25.4956C35.4441 25.4956 35.2886 25.4956 37.8791 25.8846C38.1125 25.8846 38.2681 26.118 38.2681 26.2736C38.3459 26.5848 38.1125 26.8259 37.8791 26.8259Z" fill="white"/>
<path d="M46.3501 19.0617C46.9024 19.0617 47.3692 18.5949 47.3692 18.0426C47.3692 17.4902 46.9024 17.0235 46.3501 17.0235H45.9611L43.6117 14.674C43.2227 14.2851 42.5926 14.2851 42.2036 14.674C41.8146 15.063 41.8146 15.6932 42.2036 16.0821L43.1449 17.0235H41.6513L39.3018 13.8883C38.9907 13.4215 38.3605 13.336 37.8937 13.6549C37.427 13.9661 37.3414 14.5962 37.6604 15.063L39.0685 17.0235H37.5748C37.0224 17.0235 36.5557 17.498 36.5557 18.0426C36.5557 18.5871 37.0302 19.0617 37.5748 19.0617H46.3579H46.3501Z" fill="white"/>
</svg>
